<svg xmlns="http://www.w3.org/2000/svg" xmlns:xlink="http://www.w3.org/1999/xlink" viewBox="0 0 800 800"><defs><style>.cls-1{fill:none;}.cls-2{fill:#fcfcf5;}.cls-3{fill:#f56400;}.cls-4{fill:url(#Nueva_muestra_de_motivo_2);}</style><pattern id="Nueva_muestra_de_motivo_2" data-name="Nueva muestra de motivo 2" width="250" height="250" patternUnits="userSpaceOnUse" viewBox="0 0 250 250"><rect class="cls-1" width="250" height="250"/><path class="cls-2" d="M.71,130a3.38,3.38,0,0,0,4.07-2.12c.49-1.7-.94-3.26-2.37-3.87A4.81,4.81,0,0,0,0,123.71v2.46a3.18,3.18,0,0,1,2.71.37c.42.28.16,1.08-.37.87A2.16,2.16,0,0,0,0,128v2.08a1.53,1.53,0,0,0,.18.18A.42.42,0,0,1,.71,130Z"/><path class="cls-2" d="M24.26,106.35c.25-.26.5-.53.74-.8a1.1,1.1,0,0,1-.33-.12c-.58-.32-1.15-.66-1.73-1a.79.79,0,0,1-.17.14c-5.54,2.86-11.38,5.26-17.18,7.61C12.25,113.1,19.05,111.54,24.26,106.35Z"/><path class="cls-2" d="M0,243.82V250H.9a6.12,6.12,0,0,1,6.21-4.74c2.53.14,5.3,2.18,5.7,4.74h4.28a10.44,10.44,0,0,0-.85-1.75C12.65,242.33,5.83,241.48,0,243.82Z"/><path class="cls-2" d="M15.61,171.08c5.05-4.06,9.39-8.91,10.2-15.61.84-7-3.83-15.2-11.56-15.41-8.46-.24-13,8-12.32,15.45a.87.87,0,0,1-.81.92c0,.12.06.24.08.36a.76.76,0,0,1-1.2.77v19.59a20.64,20.64,0,0,1,7.32,4.3C8.5,176.88,11.91,174,15.61,171.08Z"/><path class="cls-2" d="M26.18,104.07a18.61,18.61,0,0,0,3.09-15.25c-1.36-5.27-5.34-8.85-9.91-11.38.91,6.63-.28,14.22-1.28,20.76a.47.47,0,0,1-.37.41q4,2.53,8,5A1,1,0,0,1,26.18,104.07Z"/><path class="cls-2" d="M7.25,247.49A4.37,4.37,0,0,0,3,249.83s0,0,0,.08V250H6.63a0,0,0,0,1,0,0c-.18-.53.52-.85.9-.52A3.36,3.36,0,0,1,8,250h2.64A4.51,4.51,0,0,0,7.25,247.49Z"/><path class="cls-2" d="M10.21,96.8Q6,94.13,1.88,91.32L0,92.18v9.42c.23-.09.47-.17.7-.27C4,100,7.06,98.36,10.21,96.8Z"/><path class="cls-2" d="M6.4,81.74a67.74,67.74,0,0,1,.4-9.23c-2.24-.66-4.51-1.2-6.8-1.7V86.7q3.17,2.23,6.36,4.43C6.16,88,6.34,84.85,6.4,81.74Z"/><path class="cls-2" d="M11.08,15.11A11.92,11.92,0,0,0,17.09,0H12.81a4.08,4.08,0,0,1,0,1.35A6.26,6.26,0,0,1,11.11,9c-3,2.58-7.63,2.54-11.11.87V16A17.48,17.48,0,0,0,11.08,15.11Z"/><path class="cls-2" d="M6.13,50.94C11.81,54.6,19.21,56.21,25,52.09c10.47-7.44,10.05-21.5,2.52-30.72a1.2,1.2,0,0,1,1.7-1.7l0,0C39.87,22.5,51.33,14.26,54.15,4a12.86,12.86,0,0,0,.45-4H19.23a13.29,13.29,0,0,1-3.8,15.25C11,19.18,5.3,19.93,0,18.58V44.5A18.43,18.43,0,0,0,6.13,50.94Z"/><path class="cls-2" d="M0,90v0H0Z"/><path class="cls-2" d="M20.82,103.22c-2.93-1.7-5.85-3.43-8.74-5.24a67.53,67.53,0,0,1-12.08,6v6.92a30.31,30.31,0,0,0,3.19.9C9,108.76,14.82,105.74,20.82,103.22Z"/><path class="cls-2" d="M17.85,76.86a.44.44,0,0,1,.07-.17c-1-.48-1.94-.92-2.92-1.32-2.12-.87-4.28-1.64-6.46-2.33a82.74,82.74,0,0,1-.22,10.32c-.12,2.9-.16,5.83-.57,8.71q4.52,3,9.11,6s0,0,0,0C17.22,91.11,16.76,83.68,17.85,76.86Z"/><path class="cls-2" d="M149.85,235.08c1.33,1.84,2.65,3.68,4,5.54,7,1.29,14,2.43,21.05,3.17a29.68,29.68,0,0,0-5.63-7.41C162.88,236.65,156.2,235.73,149.85,235.08Z"/><path class="cls-2" d="M208.09,145.41q-4.29-.6-8.57-1.33a11.68,11.68,0,0,1-1.92,2.18l-2.21,2.25a28.89,28.89,0,0,0,6.85,2.91c1.91-2,3.8-4,5.79-6Z"/><path class="cls-2" d="M198.17,143.85c-4.47-.79-8.92-1.7-13.32-2.83a80,80,0,0,0,9.75,7l2.11-2.5A18.3,18.3,0,0,1,198.17,143.85Z"/><path class="cls-2" d="M210.25,145.7c-.44-.06-.89-.11-1.33-.18a.77.77,0,0,1,0,1c-1.81,1.75-3.71,3.41-5.6,5.08,3.92.77,7.61,0,10.34-3.59a8.53,8.53,0,0,0,1-1.77c-1.29-.16-2.59-.34-3.89-.52A.56.56,0,0,1,210.25,145.7Z"/><path class="cls-2" d="M210.91,144.24c1.4.21,2.8.42,4.2.61a8.76,8.76,0,0,0-3.43-8.86,10.68,10.68,0,0,0-4.65-2,26,26,0,0,1,2,4.41A44.48,44.48,0,0,1,210.91,144.24Z"/><path class="cls-2" d="M209.58,144a45.36,45.36,0,0,0-2-5c-.8-1.7-2.21-3.39-2.73-5.21a25.57,25.57,0,0,0-4,.26c-.67.1-1.34.23-2,.37,1.88,2.85,3.62,5.81,5.33,8.77C206,143.48,207.8,143.77,209.58,144Z"/><path class="cls-2" d="M156.81,247.93c-2.05-2.83-4.07-5.67-6.09-8.51A77.76,77.76,0,0,1,144.85,250h10.41a6.91,6.91,0,0,1,1.17-1.93A.45.45,0,0,1,156.81,247.93Z"/><path class="cls-2" d="M149.85,238.18l-2.72-3.87a.85.85,0,0,1-.16-.37l-.6.6a16.17,16.17,0,0,0-4,15.46h1c2-3.91,4-7.9,6.27-11.6A.62.62,0,0,1,149.85,238.18Z"/><path class="cls-2" d="M110,245.94a1.09,1.09,0,0,1-.42-.25.92.92,0,0,1-1-.87,59.89,59.89,0,0,1,.62-7.06c.16-1.37,1.09-4.38.63-5.66-1.58-4.34-5.14.72-6.48,2-1.6,1.5-3.27,2.91-5,4.32a.87.87,0,0,1-1,.13.92.92,0,0,1-.77-.12,42.53,42.53,0,0,0-6.21-3.14c-.84-.33-1.7-.63-2.56-.9a10.36,10.36,0,0,0-2.62-.72c-1,.45.9,5,1.13,5.79.51,1.81,1,3.62,1.44,5.45a.31.31,0,0,1,.2.47l-.06.09c0,.11,0,.21.08.32a.63.63,0,0,1-.83.76A24.85,24.85,0,0,1,83.94,250h34.75c-.75-.41-1.46-.76-1.91-1A44.6,44.6,0,0,0,110,245.94Z"/><path class="cls-2" d="M148.11,232.94a.78.78,0,0,1,.43.3l.35.49c6.06.25,12.5.19,18.57,1.08C161.72,230.14,154.36,228,148.11,232.94Z"/><path class="cls-2" d="M45.08,239c-5.46-1.72-10.78-1-16.3-.15a1.7,1.7,0,0,1-.51,0,1.52,1.52,0,0,0-.2.06.66.66,0,0,1-.63-1.1,1.1,1.1,0,0,1,.76-1.07,20.35,20.35,0,0,1,2.54-.81c6.3-4.49,8.59-13.28,8.36-20.78-.35-11.6-7.85-18.58-19.24-19.82A29.78,29.78,0,0,0,0,200.22v40.63a5.17,5.17,0,0,1,.89-.15.64.64,0,0,1,.63.31c7.25-3.14,15,2,17.71,9H54.6C54.35,244.72,50.49,240.68,45.08,239Z"/><path class="cls-2" d="M154.77,242q2.83,4,5.71,8h17a42.56,42.56,0,0,0-1.95-4.89A105.08,105.08,0,0,1,154.77,242Z"/><path class="cls-2" d="M157,250h1.28c-.37-.52-.75-1-1.13-1.55A6.32,6.32,0,0,1,157,250Z"/><path class="cls-2" d="M248.86,6.32a10.29,10.29,0,0,0,1.14.82V0h-4.19A7.67,7.67,0,0,0,248.86,6.32Z"/><path class="cls-2" d="M230.08,74.47c-1.76-1.55-3.5-3.11-5.19-4.71q.08,3.09.44,6.15c.91-.22,1.81-.45,2.7-.72C228.69,75,229.38,74.68,230.08,74.47Z"/><path class="cls-2" d="M238.43,103.9c.58.54,1.18,1.07,1.81,1.57a.45.45,0,0,1,.21-.22c3.09-1.44,6.38-2.39,9.55-3.65V92.18a168.64,168.64,0,0,1-16.61,5.94A38.53,38.53,0,0,0,238.43,103.9Z"/><path class="cls-2" d="M234.45,86.33a26.32,26.32,0,0,1-6.6.85,42.64,42.64,0,0,0,4.71,9.7A161.6,161.6,0,0,1,250,90.06v0q-4-2.77-7.85-5.72C239.92,85.58,236.94,85.86,234.45,86.33Z"/><path class="cls-2" d="M248,81.85a14.32,14.32,0,0,1-.11,3.42L250,86.7V70.81c-.74-.15-1.47-.33-2.21-.47A86.67,86.67,0,0,1,248,81.85Z"/><path class="cls-2" d="M246.55,84.28c-.09-.61-.16-1.16-.16-1.2,0-1.43,0-2.87,0-4.31,0-2.9-.16-5.8-.06-8.7-2.73-.48-5.47-.87-8.23-1.13a32,32,0,0,0,.24,9.32Q242.4,81.31,246.55,84.28Z"/><path class="cls-2" d="M7.25,8.39c2.85-.81,5-3.72,4.31-6.57C11.26,1.2,11,.58,10.62,0H8C9.47,2.18,7.4,5.62,4.79,5.68a4,4,0,0,1-3.6-2.41A4.62,4.62,0,0,1,.84,1.85a.78.78,0,0,1-.12-.38A6,6,0,0,1,.9,0H0V7.14A9.07,9.07,0,0,0,7.25,8.39Z"/><path class="cls-2" d="M250,110.85v-6.92a42.84,42.84,0,0,1-8.78,2.3A32.77,32.77,0,0,0,250,110.85Z"/><path class="cls-2" d="M249.75,157.19c-2.29-7.07-12.17-13.14-19.51-9.84s-7.53,14.6-3,20.15c5.51,6.71,14.87,6.79,22.72,9.65V157.56A.86.86,0,0,1,249.75,157.19Z"/><path class="cls-2" d="M240,228.92c.44,1.27-1.19,1.88-2,1.13a.85.85,0,0,1-1.33-.12c-10.18-14.57-35-11.85-40.61,5.34a20.59,20.59,0,0,0,.62,14.73h38.34a15.26,15.26,0,0,1,1.79-5.58,1,1,0,0,1,1.81.76,23.8,23.8,0,0,0-.91,4.82h5.74a9.62,9.62,0,0,1,.13-1.51c.57-3.44,2.94-6.84,6.39-7.64V200.22C241.06,206.28,235.92,217.06,240,228.92Z"/><path class="cls-2" d="M245.81,250H250v-6.18q-.9.36-1.77.81A8.91,8.91,0,0,0,245.81,250Z"/><path class="cls-2" d="M225.28,68.43q5.78,4.44,11.58,8.77a23.5,23.5,0,0,1-.41-8.4C232.73,68.5,229,68.38,225.28,68.43Z"/><path class="cls-2" d="M250,130.05V128a1.57,1.57,0,0,0-.36.61A1.39,1.39,0,0,0,250,130.05Z"/><path class="cls-2" d="M245.72,126.61a5.62,5.62,0,0,0,2.22,7.35,5,5,0,0,0,2.06.65v-2.32a3.63,3.63,0,0,1-2.13-4.07,3.09,3.09,0,0,1,2.13-2v-2.46A5.63,5.63,0,0,0,245.72,126.61Z"/><path class="cls-2" d="M228.44,76.7c-1,.21-2,.36-2.95.48a55.65,55.65,0,0,0,2,8.92c2.17-1,4.7-1.18,7-1.7a58.15,58.15,0,0,1,6-1.43c-3-2.34-6-4.73-8.86-7.21A10.28,10.28,0,0,1,228.44,76.7Z"/><path class="cls-2" d="M171.08,17.62a39.2,39.2,0,0,1-1.1,5.61c3.08,1.29,6.26,2.27,9.4,3.38A52.26,52.26,0,0,1,171.08,17.62Z"/><path class="cls-2" d="M178,19.05a23.67,23.67,0,0,1,2.51.05c-.1-1.9-.22-3.8-.4-5.69a.53.53,0,0,1-.3.14,28.37,28.37,0,0,1-5.81-.36q-2-.18-4.05-.39Q172.4,16,175,19C176,19,177,19,178,19.05Z"/><path class="cls-2" d="M175.83,20c1.6,1.87,3.23,3.72,4.92,5.51-.05-1.64-.11-3.28-.18-4.93a18.32,18.32,0,0,1-2.36-.26Z"/><path class="cls-2" d="M241.48,11.37A17.14,17.14,0,0,0,250,16V9.88c-.29-.14-.58-.28-.85-.44A11.16,11.16,0,0,1,243.48,0h-5.74A14.35,14.35,0,0,0,241.48,11.37Z"/><path class="cls-2" d="M3.2,2.1A2,2,0,0,0,4.79,3.33C6.42,3.36,7,1.25,6.63,0H3A4.17,4.17,0,0,0,3.2,2.1Z"/><path class="cls-2" d="M81.47,2.16c-.64.56-2.47,1.61-2.78,2.4-.79.49-.46.73,1,.7.67.08,1.34.15,2,.21,1,.08,2,.15,3,.19,2.1.09,4.28-.18,6.34.26a.71.71,0,0,1,.52.39.8.8,0,0,1,1.17.21c1.15,2.11,2.33,4.18,3.64,6.19s2.84,5.07,4.75,6.35c.32.87.76,1,1.31.41.31-.62.59-1.24.85-1.88.55-1.32,1-2.65,1.47-4A54,54,0,0,0,106.47,6a.83.83,0,0,1,.56-.67.79.79,0,0,1,.8-.84c2.45-.1,4.9-.25,7.35-.43,1.22-.1,2.44-.21,3.65-.36L121,3.43c1.26.18,1.54-.09.83-.82-.26-.93-1.73-1.87-3.09-2.61H83.94l-.1.1C83.06.79,82.27,1.48,81.47,2.16Z"/><path class="cls-2" d="M168.77,22.73a35.4,35.4,0,0,1,.59-3.87c.16-.95.3-1.92.51-2.88-.87-1.18-1.72-2.37-2.56-3.55a.42.42,0,0,1-.09-.14c-.81-1.13-1.6-2.25-2.4-3.35a61.63,61.63,0,0,1-3.3,10,75.45,75.45,0,0,0,7.23,3.81Z"/><path class="cls-2" d="M201.26,6c6.31,5.27,13.33,4.89,20.65,2.61a.77.77,0,0,1,1.05.51.54.54,0,0,1,.1.92c-5.47,4.43-12,8-15.67,14.21-4.43,7.41-3.15,15.64,3.83,20.81a21.93,21.93,0,0,0,21.89,2.42c6.44-3,9.66-8.36,12.41-14.58.53-1.21,2.12-.25,1.95.83-.05.31-.12.61-.18.92a.71.71,0,0,1,.06.25A21.52,21.52,0,0,0,250,44.5V18.58C241.45,16.4,234,8.73,235.05,0H196.71A16.73,16.73,0,0,0,201.26,6Z"/><path class="cls-2" d="M161.68,1.54c2.71.14,5.41.46,8.11.62s5.55,0,8.1.59a.64.64,0,0,1,0,1.27c-2.52.39-5.31-.12-7.83-.4s-5.17-.56-7.71-1c.72,1,1.44,2,2.17,3a.61.61,0,0,1,.82.69l-.06.34c1.21,1.63,2.42,3.25,3.66,4.86,1.75.1,3.5.21,5.24.33a27.94,27.94,0,0,1,5.79.57l0,0A59.4,59.4,0,0,0,177.47,0h-17l1.1,1.55A.16.16,0,0,1,161.68,1.54Z"/><path class="cls-2" d="M143.34,0h-1c.12.4.25.79.4,1.18Z"/><path class="cls-2" d="M143.52,2.89a32.25,32.25,0,0,0,8,9c.7-2.38,1.49-4.73,2.25-7.09A47.68,47.68,0,0,1,155.26,0H144.85l-1.56,2.42C143.37,2.58,143.44,2.74,143.52,2.89Z"/><path class="cls-2" d="M152.38,12.53c1,.79,2,1.56,3,2.29,1.75,1.3,3.57,2.5,5.42,3.63,1.07-3.67,1.94-7.38,2.9-11.08-1.8-2.45-3.58-4.91-5.37-7.37H157a33.46,33.46,0,0,1-1.76,4.86C154.32,7.42,153.4,10,152.38,12.53Z"/><path class="cls-2" d="M194.09,141.46c3,.51,5.92,1,8.88,1.51-1.86-2.59-3.7-5.21-5.4-7.9a.94.94,0,0,1-.12-.3,45.12,45.12,0,0,0-6.1,2.06c.86,1.46,1.63,3,2.64,4.36A.43.43,0,0,1,194.09,141.46Z"/><path class="cls-2" d="M48.27,182.32l4.2.62A8.75,8.75,0,0,0,49,174.08a10.65,10.65,0,0,0-4.64-2,25.63,25.63,0,0,1,2,4.41A46.42,46.42,0,0,1,48.27,182.32Z"/><path class="cls-2" d="M46.94,182.13a43.69,43.69,0,0,0-2-5c-.8-1.69-2.2-3.39-2.72-5.2a25.57,25.57,0,0,0-4,.26c-.67.09-1.34.22-2,.36,1.87,2.86,3.62,5.82,5.33,8.77C43.39,181.57,45.16,181.85,46.94,182.13Z"/><path class="cls-2" d="M31.45,179.55l8.87,1.51c-1.85-2.59-3.69-5.21-5.39-7.9a.8.8,0,0,1-.12-.31,45.78,45.78,0,0,0-6.11,2.07c.87,1.46,1.64,3,2.65,4.35A.56.56,0,0,1,31.45,179.55Z"/><path class="cls-2" d="M27.58,175.39c-1.87.82-3.7,1.7-5.48,2.6,2.62.41,5.24.85,7.85,1.3A13.46,13.46,0,0,1,27.58,175.39Z"/><path class="cls-2" d="M113.75,146.49q1.19-1.86,2.39-3.67a.38.38,0,0,1,.09-.15c.76-1.16,1.52-2.31,2.25-3.45a61.44,61.44,0,0,1-10.49.55,76.3,76.3,0,0,0-.92,8.13v0a34.43,34.43,0,0,1,3.82-.86C111.83,146.86,112.79,146.64,113.75,146.49Z"/><path class="cls-2" d="M35.53,181.93c-4.47-.78-8.92-1.7-13.32-2.82a78.21,78.21,0,0,0,9.75,7c.7-.83,1.41-1.66,2.11-2.5A21.29,21.29,0,0,1,35.53,181.93Z"/><path class="cls-2" d="M116.11,211.68q-1.11-4.19-2.1-8.42a11.41,11.41,0,0,1-2.75-.92l-2.93-1.17a29.05,29.05,0,0,0,0,7.45c2.59,1,5.2,1.93,7.75,3Z"/><path class="cls-2" d="M113.71,201.93c-1-4.43-1.89-8.88-2.56-13.37a79.09,79.09,0,0,0-2.71,11.71l3.12,1C112.27,201.47,113,201.64,113.71,201.93Z"/><path class="cls-2" d="M112.67,148.21a38.53,38.53,0,0,1-5.63,1c-.08,3.34.17,6.66.27,10A52.26,52.26,0,0,1,112.67,148.21Z"/><path class="cls-2" d="M40,68.61a.67.67,0,0,1,1-.13.56.56,0,0,1,.44.56,7.84,7.84,0,0,0,.75,4.24q4.45,4.64,7.58.07c1.22-1.92,1-4.56.69-6.66-.52-3.1-1.47-6.17-2.28-9.22-2,2.5-6.59,2.82-9.48,3-4.15.24-9.4,2.57-7.72,7.74C32.3,72.44,37.94,71.84,40,68.61Z"/><path class="cls-2" d="M114.33,197.25c.68,2.92,1.35,5.84,2,8.76,1.67-2.71,3.37-5.43,5.19-8a.75.75,0,0,1,.24-.23,45.25,45.25,0,0,0-4.27-4.83,48.74,48.74,0,0,0-3,4.13A.5.5,0,0,1,114.33,197.25Z"/><path class="cls-2" d="M116.65,192.07c-1.47-1.41-3-2.76-4.51-4q.94,3.85,1.84,7.74A13.66,13.66,0,0,1,116.65,192.07Z"/><path class="cls-2" d="M80.67,190.67a.81.81,0,0,1-.61.45h0c0,.78-1.29,1-1.41.19-.88-5.8-6-11-12-7.16s-4.72,11.71-.47,16.16c3.88,4.07,9.35,6.29,11.12,11.73,2.75-4.32,9.41-6,13.12-9.23,4-3.42,6.51-8.72,3-13.45S83.41,185.71,80.67,190.67Z"/><path class="cls-2" d="M136.63,114.21a.8.8,0,0,1-.13.5l-.33.51c2,5.73,4.37,11.71,5.75,17.69C144.18,125.86,143.51,118.22,136.63,114.21Z"/><path class="cls-2" d="M117.85,149.31c-.38-1.3-.74-2.6-1.11-3.91q-2,3.43-4,6.93c.38.94.72,1.89,1.07,2.84a22.59,22.59,0,0,1,.86,2.36c1.74-.79,3.47-1.59,5.16-2.45a.51.51,0,0,1-.24-.22A28.52,28.52,0,0,1,117.85,149.31Z"/><path class="cls-2" d="M124.19,133.52a.9.9,0,0,0,0,.09c.84,2.57,1.53,5.2,2.36,7.78s2.05,5.15,2.39,7.76a.64.64,0,0,1-1.18.45c-1.28-2.2-1.82-5-2.48-7.44s-1.35-5-1.84-7.56c-.68,1-1.36,2.08-2,3.12a.61.61,0,0,1-.34,1l-.35.07c-1.08,1.71-2.14,3.44-3.19,5.17.54,1.67,1.08,3.34,1.6,5a29,29,0,0,1,1.58,5.6s0,0,0,0a52.53,52.53,0,0,0,14.5-10.47,104.62,104.62,0,0,1-4.63-20.46Q127.39,128.59,124.19,133.52Z"/><path class="cls-2" d="M131.54,122.31c1.33,7,2.83,13.93,4.71,20.76a29.94,29.94,0,0,0,4.85-7.94c-2.56-5.81-4.13-12.38-5.83-18.52C134,118.51,132.8,120.41,131.54,122.31Z"/><path class="cls-2" d="M132.38,117.73c.87-1.32,1.73-2.63,2.61-3.94a.77.77,0,0,1,.29-.28c-.26-.12-.51-.24-.78-.35a16,16,0,0,0-16.82,2.67c4.79.52,9.69.87,14.41,1.76A.66.66,0,0,1,132.38,117.73Z"/><path class="cls-2" d="M45.45,183.5q-4.29-.62-8.58-1.33A11.22,11.22,0,0,1,35,184.34l-2.22,2.26a29.55,29.55,0,0,0,6.86,2.91c1.91-2,3.8-4,5.79-6Z"/><path class="cls-2" d="M125.48,128.29c-2,.86-4.52.52-6.67.56-2.73,0-5.47.12-8.2.09-.37,1.22-.72,2.43-1,3.61-.58,2.1-1,4.23-1.42,6.37,3.81-.34,7.58-.88,11.38-1.32Q122.49,132.94,125.48,128.29Z"/><path class="cls-2" d="M48.1,183.86a.64.64,0,0,1-.49-.07l-1.33-.18a.77.77,0,0,1-.05,1c-1.81,1.75-3.71,3.41-5.6,5.08,3.92.77,7.61,0,10.33-3.59a8.4,8.4,0,0,0,1-1.77Z"/><path class="cls-2" d="M125.55,127.45a.46.46,0,0,1,.27.31q2.84-4.4,5.72-8.77a92,92,0,0,1-14.82-2.19c-.11.13-.24.25-.35.39A32,32,0,0,0,111,127.9c2.47-.21,5-.33,7.42-.49C120.62,127.27,123.41,126.65,125.55,127.45Z"/><path class="cls-2" d="M119.7,72.45c1.07-11.85,14.07-15.36,23.89-16.77,1.11-.16.76-1.82-.25-1.88-13.64-.71-19.27-19.43-6.67-26.34,11.41-6.25,31,2.51,25.37,17.33-.24.63.81,1.08,1.09.46l.11-.3c.51.29,1.31.17,1.42-.5.86-5.71,7.82-10.94,13.38-7.21,4.12,2.76,4.57,8.78,1.78,12.53-.31.34-.62.68-.91,1-.91,1.17.55,2.77,1.67,1.67a9.19,9.19,0,0,0,.93-1.05c6.55-6.75,18.58-4.9,20.92,5.11,2.55,10.89-9.27,18.38-18.51,13a1.16,1.16,0,0,0-1.4,1.81c2.42,2.31,5.21,4.86,6.22,8.14,1.35,4.36-1.45,8.57-5.59,10-7.19,2.42-13.06-3.77-15.19-10a1.14,1.14,0,0,0-2.2.61c1.28,5.31,2.18,11.12.35,16.42-2,5.62-7.45,10.73-13.79,9.27-13.5-3.12-10.51-20.21-6.61-29.39.42-1-.83-2.31-1.65-1.28-3.59,4.46-8.59,9.59-14.87,9.22C122.62,83.93,119.13,78.69,119.7,72.45Zm33.18-5.09c3.75,5.48,13.45,3.88,14.1-3.15.25-2.75-1.11-5.79-3.85-6.76a5.89,5.89,0,0,0-7.08,3c-.86,2,.11,5.5,2.75,5.51a2.48,2.48,0,0,0,1.94-4c-.51-.67-1.68.22-1.18.91-1.71-.1-2.27-.59-1.7-1.47a1.6,1.6,0,0,1,.69-.94,3.61,3.61,0,0,1,6.26,1.87c1,3.86-2.86,7-6.52,6.25a6.24,6.24,0,0,1-4.72-7.12c.57-3.72,4.13-5.72,7.53-6.32a.44.44,0,0,0,0-.85C153.73,52.77,148.76,61.36,152.88,67.36Z"/><path class="cls-2" d="M159.27,119.45c-4.16.25-9.41,2.58-7.73,7.75,1.38,4.23,7,3.63,9.05.41a.64.64,0,0,1,1-.13.55.55,0,0,1,.44.56,8,8,0,0,0,.75,4.24q4.45,4.64,7.59.07c1.22-1.92,1-4.56.68-6.67-.52-3.09-1.47-6.17-2.28-9.21C166.75,119,162.15,119.28,159.27,119.45Z"/><path class="cls-2" d="M185.09,181.48c3.43,5.23,6.39,11.79,2.58,17.7-2.23,3.46-7.08,5.25-10.8,3-3.1-1.85-4.22-5.53-6.09-8.37a.87.87,0,0,0-1.6.35.51.51,0,0,0-.26.39c-1,6.08-7.14,15.55-13.18,17.84-5.07,1.92-9.89-1.86-10.77-6.89-.91-5.21,2.33-9.08,5.6-12.67a.71.71,0,0,0,.09-.85l.18-.11c.61-.4.24-1.54-.52-1.25a12.37,12.37,0,0,1-8.86-.29c-2.82-1-6.52-3-4.71-6.53,2.34-4.55,10.52-5.76,15-6.59,1-.19,1-1.35.33-1.89a.66.66,0,0,0-.57-.86c-4.12-.23-8.08-1.14-11-4.34a11.18,11.18,0,0,1-.88-14.21c6.64-8.68,17.56-3.15,19.41,6.07.2,1,1.75.75,1.74-.24,0-.14,0-.27,0-.41a.6.6,0,0,0,.71-.46c1.33-5.79,4.51-13,11.81-12.06,8.8,1.13,6.3,11,4.77,16.69a1,1,0,0,0,1.74.87,1,1,0,0,0,.18-.13c4.42-4.54,13.93-3.23,17,2.32a7.21,7.21,0,0,1-3,9.95c-2.73,1.55-5.73,1.25-8.72,1.15l-.12-.12c-.41-.38-1.12,0-1,.53a.93.93,0,0,0,.51,1.27Zm-11.48-4.32A6.49,6.49,0,0,0,167.2,172a4.59,4.59,0,0,0-4.57,4.86c.16,2.37,2.12,4.61,4.64,4.32,2.32-.27,3.61-3,1.72-4.61a.86.86,0,0,0-1.21,1.22c-.52-.6-1.88,2.53-2.89-.19a2.59,2.59,0,0,1,.41-2.67c1.57-1.57,4.29-.49,5.35,1a5.16,5.16,0,0,1-2.44,7.86c-7.4,2.71-11.53-8.53-5-12.24.5-.29.17-1.15-.4-1-6.73,2.31-6.18,11.94-.26,14.93C168.21,188.43,175.22,183.52,173.61,177.16Z"/><path class="cls-2" d="M192.85,103.24c-3.13,4.2-4.46,9.93,0,13.77s10.59,1.39,12.18-4a.8.8,0,0,1,.51-.58h0c-.16-.76,1-1.26,1.34-.49,2.12,5.47,8.23,9.45,13.22,4.39s2-12.46-3.06-15.88c-4.67-3.13-10.49-4.1-13.41-9C201.9,96.18,195.77,99.3,192.85,103.24Z"/><path class="cls-2" d="M78.49,36.87a4.14,4.14,0,0,0,.37.84.63.63,0,0,0,1,.09.54.54,0,0,0,.66-.83c-.12-.13-.25-.23-.37-.35.27-2.5.63-4.73,2.93-6.36a9.61,9.61,0,0,1,6-1.56c6.27.37,5.65,8.13,3.77,12.31a1.42,1.42,0,0,0-.08.18l0,.07a.69.69,0,0,0,.63,1,.87.87,0,0,0,.7-.06c2.28-1.11,4.2-2.6,6.87-2.62,2.51,0,5.34,1.5,5.88,4.16,1,5.09-6.24,9.53-10.43,7.55a.71.71,0,0,0-1,.77.74.74,0,0,0-.36,1.18c1.53,2,2.83,3.58,2.79,6.27a6.5,6.5,0,0,1-4.23,6.25,7.89,7.89,0,0,1-6.8-1.16c-3.12-2.27-3-6.25-2.84-9.74a.63.63,0,0,0-1.23-.16c0,.12,0,.24-.07.37a.76.76,0,0,0-.42.24c-2.51,2.58-7.85,9.79-11.63,4.43-2.54-3.61.52-7.32,3.65-9.46a5.73,5.73,0,0,0,1-.17.69.69,0,0,0,.53-.78l.05,0c.48-.25.14-1-.36-.85l-.45.14c-1.64-.53-3.18-.8-4.48-2.09a6,6,0,0,1-1.46-6.06A6.52,6.52,0,0,1,78.49,36.87Zm1.5,12c2.52,3.15,8.43,4.51,11.08.83,2.44-3.39-1.15-9-5.29-8a3.25,3.25,0,0,0-2.65,3.53,2.52,2.52,0,0,0,3.08,2.21.66.66,0,0,0,0-1.26c-1-.13-1.24-.91-.74-2.36a2.24,2.24,0,0,1,2.4,0A4,4,0,0,1,90,47.47c-.44,2.53-3.54,2.82-5.48,2.19s-3.82-1.89-3.82-4a4.37,4.37,0,0,1,2.64-3.92c.5-.22.11-.89-.35-.82A5,5,0,0,0,80,48.85Z"/><path class="cls-2" d="M112.15,153.52c-1.17,2.17-2.3,4.36-3.36,6.58,1.51-.64,3-1.3,4.53-2a18.41,18.41,0,0,1-.61-2.29C112.52,155.07,112.33,154.3,112.15,153.52Z"/><path class="cls-2" d="M116.68,213.79l-.36-1.3a.77.77,0,0,1-1,.36c-2.32-1-4.58-2.1-6.85-3.19.81,3.91,2.94,7,7.31,8.13a8,8,0,0,0,2,.26c-.35-1.25-.69-2.52-1-3.78A.58.58,0,0,1,116.68,213.79Z"/><path class="cls-2" d="M190.22,137.31c-1.87.81-3.7,1.7-5.47,2.59,2.62.42,5.23.86,7.84,1.3A13.41,13.41,0,0,1,190.22,137.31Z"/><path class="cls-2" d="M194.1,250H179.75a36.78,36.78,0,0,0-8.1-14.52c-7-7.53-18.86-10.77-26.66-2.53-5.31,5.61-6.3,11.47-4.56,17.05H122.75c-.86-.63-1.8-1.15-2.45-1.57a47.51,47.51,0,0,0-9.65-4.68c.54-3.12.67-6.38,1-9.52.18-2,.6-4.64-1.31-6-1.46-1-2.84-.49-4.12.51a85.72,85.72,0,0,0-8.4,7.89v0A40.2,40.2,0,0,0,90.21,233c-1.63-.58-4.59-2-6.33-1.2s-.93,3-.49,4.35c1,3.13,2,6.24,3.19,9.3a32.24,32.24,0,0,0-6.15,4.6h-23c-.25-11-12.26-15.74-22.61-14.81,4.87-4.52,6.95-12,7.08-18.64C42.16,205,36,196.13,24.61,193.48A34.33,34.33,0,0,0,0,196.88V180a22,22,0,0,1,6.59,4.21,1.15,1.15,0,0,0,1.6.07,1.07,1.07,0,0,0,1.36-.9c1-5.8,5.92-8.58,10-12.12a26.69,26.69,0,0,0,7.19-9.42c2.77-6.31,2.41-13.67-2.11-19.09A13.8,13.8,0,0,0,8.06,138.9,14.27,14.27,0,0,0,0,150V136.44a6.75,6.75,0,0,0,6.54-3.06.82.82,0,0,0-1.29-1c-1.53,1.33-3.33,2.38-5.25,2.22v-2.32a2.34,2.34,0,0,0,1.63,0,.78.78,0,0,0,.5-.67c2.84.31,5.4-2.81,4.46-5.83s-3.79-4.25-6.59-4v-8.36c8.71,2.68,18.44,1.68,25.47-4.89A20.12,20.12,0,0,0,24.1,77.58c-6.23-4.67-14.44-7-21.9-8.73-.73-.17-1.46-.32-2.2-.48V48.77C5.63,55.7,15.61,59.72,23.71,56,36.5,50.22,39.55,32.15,31.13,21.7c11.74,2.93,24.69-7.28,26.2-19.23A16.18,16.18,0,0,0,57.46,0h23l-1,.86c-1.23,1.06-4.39,2.76-3.6,4.87.68,1.82,3.3,1.81,4.85,2,3.24.33,7.24.91,10.4-.05a.93.93,0,0,0,.35-.23,41.81,41.81,0,0,0,4.83,9c1.19,1.69,3.34,5.7,5.6,6s3.11-3,3.74-4.53a46,46,0,0,0,3-11.47s0,0,0-.09a52.34,52.34,0,0,0,11.46-.33c1.73-.23,4.83-.21,5-2.58C125.06,2,124,.89,122.75,0h17.68c4.67,15.05,29.13,28.11,42.1,28.79a.47.47,0,0,0,.24-.89l-.24-.09a.5.5,0,0,0-.09-.45,1,1,0,0,0,.27-.69c0-8.68-.33-18.14-3-26.67H194.1a19.61,19.61,0,0,0,5.51,7.69,23,23,0,0,0,15.53,5.23c-5.23,3.42-9.76,8-11.94,13.84-2.9,7.85-.29,15.56,6.35,20.49,11.3,8.38,30.07,4.82,36.18-7.89A19.18,19.18,0,0,0,250,48.77v19.6A111,111,0,0,0,224.68,66a1.2,1.2,0,0,0-1.12,1.56.59.59,0,0,0-.07.2c-2.09,14.59,4,30.51,15.53,39.8a33.15,33.15,0,0,0,11,5.82v8.36a7.27,7.27,0,0,0-3.91,1.47,7.35,7.35,0,0,0,3.91,13.2V150a17.47,17.47,0,0,0-.21,2.62c-2.57-4.92-7.88-7.94-13.62-8.56-7.86-.86-13.4,4.29-14.52,12a17,17,0,0,0,9.41,17.75c6,3.08,12.9,3.65,18.94,6.23v16.84a28.45,28.45,0,0,0-5.56,4.17,27.36,27.36,0,0,0-7.51,26c-10.44-15.4-37.1-10.14-43.07,6.92A23,23,0,0,0,194.1,250Zm21.27-62.33c-7.68.66-12.43,8.74-9.25,15.41,3.09,7.45,16.78,7.45,16.78-1.86,0-3.34-2.61-6.76-6.1-6.82-3.79-.06-6.89,3.87-5.62,7.47a.89.89,0,0,0,.85.64l.48,0a3.34,3.34,0,0,0,3.32.92,3.44,3.44,0,0,0,2.17-4.31.6.6,0,0,0-1.15.31,1.84,1.84,0,0,1-2.47,2.05.44.44,0,0,0-.26-.2.75.75,0,0,1-.13-.06c-.37-.37-.64-1-1-1.33.06-1.83,3.22-4.46,5.76-2.8a5,5,0,0,1,1.15,7.18,6.58,6.58,0,0,1-7.08,2.21c-2.27-.67-3.79-2.32-5.32-4-1.66-6.06,1.94-12.72,8.9-12.71,7.42,0,9.9,6.89,9.21,13.15-.08.75,1.11,1,1.43.38C230.78,195.54,223.34,187,215.37,187.67ZM183.44,139.9a.46.46,0,0,0-.49.71c6.32,7.87,28.94,22.6,34.13,5.3a11,11,0,0,0-7.84-13.64c-8.34-2.28-18.3,2.83-25.52,6.4A.82.82,0,0,0,183.44,139.9Zm21.33-51.16a1,1,0,0,0-1.71-.16,1,1,0,0,0-.76.57c-3.63,8.58-20.76,15.81-12.66,27.44,4.44,6.39,14.06,5.31,16.76-1.67,3.5,7.32,14.09,7.77,17.58-.79a12.41,12.41,0,0,0-2.56-12.87C216.62,95.88,207.76,95.89,204.77,88.74Zm-87-12.64c.74,5,4.07,9.1,9.17,10.05,5.8,1.07,10.79-1.72,14.84-5.52-1.91,5.61-2.83,11.61-.67,17.27,1.94,5.07,6.39,9.59,11.94,10.28,5.4.67,10.37-2.5,13.25-6.89s3.44-9.76,2.89-15c3.83,4.84,9.76,7.78,16,4.7a10.58,10.58,0,0,0,6.2-8.87c.1-3.37-1.61-6.28-3.77-8.81,9.32,1.73,18.92-5.6,17.26-16.15s-13-14.85-21.35-10.34a10.8,10.8,0,0,0-5-11.65c-5.25-2.94-11.26-.19-14.12,4.47.4-12.81-18.55-20.14-29.39-13.39-12.08,7.52-8,23.86,3.45,28.31C127.61,57,115.86,63.16,117.78,76.1ZM169.69,114s0-.07,0-.11c0-.82-1-.9-1.39-.37-3.88,5.16-9.23,2.58-14.39,4.77a7.9,7.9,0,0,0-4.69,8.38c.81,5.46,8.1,7.33,11.32,3.55.27,4.56,4.84,8.5,9.45,5.47,6.8-4.45,2-15.19.34-21A.92.92,0,0,0,169.69,114ZM67.5,39.27C66,43,68.11,48.62,72,50c-3.79,2.38-6.24,6.78-3.16,11.14,3.77,5.34,10.08,1.66,13.38-2.51A8.8,8.8,0,0,0,85,66a9.82,9.82,0,0,0,9.5,1.94,8.61,8.61,0,0,0,5.55-7.28,10.22,10.22,0,0,0-1.74-6.94c5.15.94,11.27-4.38,10.88-9.61-.5-6.8-8.45-7.92-13.57-5.24,1.66-5,.37-11.5-5.62-12.2a11.27,11.27,0,0,0-9.2,2.89,8.46,8.46,0,0,0-2.59,5.71A7.68,7.68,0,0,0,67.5,39.27Zm14.19,91.22c4.27-3.94,7.86-9.77,2.27-14.22-5.15-4.1-10.81-1.38-14.71,2.76.81-4.25.35-8.68-2.72-12.09-2.67-3-6.79-4.47-10.63-3-8,3-8,11.1-4.36,17.13a14.46,14.46,0,0,0-10.41-2.9,10.06,10.06,0,0,0-8.57,7.16c-2.42,8.45,4.39,14.06,11.76,14.51-3.75,2-7.18,4.69-8.83,8.7-1.58,3.82-1.47,8.62,1.5,11.76,6.14,6.48,18.44,2.53,22.95-4.44,2,7.59,8,17.36,17,12.36,7.83-4.37,6-13.61,1.6-19.71,6.78,1.36,15.57.31,16.4-8C95.7,132.65,88.19,130,81.69,130.49ZM64.07,85.59A1.45,1.45,0,0,1,65,84.11a2.09,2.09,0,0,1,2.63,1.34c.17.54,1,.23.91-.28a3.25,3.25,0,0,0-4.38-2.65c-2,.84-2.81,4.29-.74,5.49a.75.75,0,0,0,.83,0c1.58,2.38,5.62,2.36,7.34-.29,2.54-3.92-.62-8.8-4.75-9.71a7.44,7.44,0,0,0-9,6.34c-.55,4.31,3.34,8.91,7.86,8.18a.83.83,0,0,0,0-1.63c-2.71-.44-5.34-1.58-5.88-4.63A5.61,5.61,0,0,1,64,79.84a5.35,5.35,0,0,1,6.24,3.52c.44,1.49.16,3.58-1.47,4.28a3.38,3.38,0,0,1-4.23-1.77A.39.39,0,0,0,64.07,85.59ZM54.65,28.24C58.72,35.8,70,34.77,74.11,27.9c4-6.61.18-15.19-7.09-16.5-7.85-1.86-15.86,9.24-8.31,14.69,2.71,1.95,7,1.83,9.1-1,2.27-3,.89-7.85-2.77-8.93a.89.89,0,0,0-1,.31l-.24.43a3.35,3.35,0,0,0-2.69,2.15,3.42,3.42,0,0,0,2.23,4.28.6.6,0,0,0,.41-1.12,1.84,1.84,0,0,1-.22-3.19.53.53,0,0,0,.32-.1l.12-.07c.52-.08,1.19.06,1.68-.05,1.45,1.12,1.74,5.22-1.1,6.31a5,5,0,0,1-6.49-3.26,6.56,6.56,0,0,1,2.35-7c1.87-1.45,4.1-1.72,6.35-2,5.88,2.19,9.18,9,5.1,14.65-4.35,6-11.38,4-16-.22C55.23,26.8,54.3,27.59,54.65,28.24Zm-14.71,43c.27,4.56,4.84,8.5,9.45,5.48,6.8-4.46,1.94-15.19.33-21a.89.89,0,0,0-.65-.66s0-.07,0-.1c.06-.82-1-.91-1.38-.38-3.88,5.17-9.23,2.58-14.39,4.78a7.88,7.88,0,0,0-4.69,8.38C29.43,73.16,36.71,75,39.94,71.25ZM54.44,184a11,11,0,0,0-7.84-13.63c-8.34-2.28-18.3,2.82-25.53,6.4A.81.81,0,0,0,20.8,178a.47.47,0,0,0-.49.72C26.63,186.56,49.25,201.3,54.44,184Zm5.05,37.36a7.46,7.46,0,0,0-9,6.35c-.54,4.31,3.34,8.9,7.86,8.18a.83.83,0,0,0-.05-1.64c-2.71-.43-5.34-1.57-5.88-4.62a5.63,5.63,0,0,1,4.24-6.4,5.36,5.36,0,0,1,6.24,3.52c.44,1.49.16,3.58-1.46,4.29a3.38,3.38,0,0,1-4.23-1.78.42.42,0,0,0-.49-.28,1.44,1.44,0,0,1,.92-1.47,2.09,2.09,0,0,1,2.63,1.33c.17.55,1,.24.91-.27a3.25,3.25,0,0,0-4.38-2.65c-2,.84-2.81,4.29-.74,5.49a.77.77,0,0,0,.83,0c1.58,2.38,5.62,2.36,7.34-.29C66.77,227.15,63.61,222.27,59.49,221.35Zm37-30.87c-3-7.2-12.57-8.24-16.73-2-1.82-7.9-12.06-10.66-17.32-3.06a12.41,12.41,0,0,0-.31,13.12c3.51,6.3,12.17,8.21,13.53,15.85a1,1,0,0,0,1.63.53,1,1,0,0,0,.86-.4C83.59,206.93,101.88,203.6,96.51,190.48ZM110.87,95a1.11,1.11,0,0,0-2.21,0c-.31,12.64-19,14.79-25.34,5.47-5.06-7.41-.4-18.2,8.22-20.07,10.66-2.32,20,12.59,9.37,19-4.63,2.8-11.63,1-13.2-4.56-.9-3.14.34-7.13,3.74-8.28a6.34,6.34,0,0,1,5,.47q5.25,5.83-1.44,7.88a.66.66,0,0,0-.53,0,2.18,2.18,0,0,1-1.74-2.24c.21-1.49,2.34-2.29,3.59-1.75.5.21,1.06-.36.62-.79-2.07-2-5.71-.66-6.3,2.09s2.53,5.61,5.09,4.52c3.13.84,5.33-3.5,4.93-6.52-.61-4.66-5.56-6.94-9.8-5.61-5,1.58-6.72,7.52-4.7,12.08s7.15,6.75,12,5.89c12.86-2.28,11.37-20.2.2-23.86C86.42,74.75,75.54,87.93,80.2,99.15,85.82,112.68,110.78,111.06,110.87,95Zm-4.45,68a.47.47,0,0,0,.92-.1v-.26a.5.5,0,0,0,.38-.25,1,1,0,0,0,.75,0c13.16-5.11,27.87-11.83,34.35-25.28,4.46-9.27,3.17-21.49-7.34-25.76C109.06,100.55,100.83,146,106.42,162.94Zm22.25,44.71c-1.13-8.57-9.7-15.77-15.8-21.05a.81.81,0,0,0-1.23.22.46.46,0,0,0-.85-.17c-4.8,8.87-9.62,35.43,8.35,33.51A11,11,0,0,0,128.67,207.65Zm58.64-25.73c7.31.73,15.44-5.23,12.12-13.25-2.72-6.56-12.24-9.09-18.14-5.43,2.15-6.5.76-15.18-6.91-16.67s-13,5.16-14,12c-2.58-9.52-16-12.29-22.44-4-6.7,8.65.24,19.84,9.71,21.14-6,1.29-14.65,4.18-13.77,10.54.75,5.45,8.72,7.82,14.08,6.72-6.85,6-7.83,18.7,2.27,22,5.08,1.67,9.19-1.41,12.42-5.05s6.53-8,7.36-13c2.78,6.77,9.9,11.63,16.85,6.55C194.22,198.19,192.25,188.27,187.31,181.92Z"/><path class="cls-2" d="M77.49,131.34c-.86.61-.38,2.21.76,1.82,3.48-1.19,7.33-2,10.79,0s5,5.76,3.08,9.43c-3.11,6.05-10.68,5-16.08,3.3a1,1,0,0,0-1,1.63c4.81,4.69,8.79,14.79.76,18.91-8.64,4.44-13.5-6.91-14.75-13.31-.18-.91-1.41-.73-1.68,0-2.79,7.57-18.79,13.05-22.52,3.42C33.48,147.64,43.46,142,50,139.09c.93-.41.27-1.89-.68-1.62-7.46,2.19-17.43-2.57-14.88-11.62,3.12-11.06,16-4.15,20.72,1a.88.88,0,0,0,1.48-.35l0,0c.57.36,1.28-.52.73-1-5.46-4.27-10.2-13.77-2.76-18.87,4-2.76,8.72-1.49,11.44,2.46s2.07,9.14.44,13.53c-.34.9,1,1.4,1.5.63,2.78-4.45,7.89-9.52,13.57-6.64C89.84,120.85,81.77,128.3,77.49,131.34Zm-16.42,1.28c-1.24,1.77-.89,4.5,1.35,5.29A2.31,2.31,0,0,0,65.48,135c-.26-.81-1.59-.72-1.54.21l-1.35.68c-.07-.64-.15-1.27-.23-1.91.18-.71,1.34-1.31,2-1.4A3.07,3.07,0,0,1,67.43,135c.79,2.61-1.19,5.21-3.72,5.79-2.68.62-5.16-1.55-5.56-4.12-.47-3,2.36-5.59,5.17-6,.32,0,.48-.56.08-.63-5.74-1-9.46,5.56-6,10.16s11.14,2.87,12.08-2.95C70.27,132.63,64.4,127.88,61.07,132.62Z"/><path class="cls-2" d="M121.83,208.75c1.25-1.4,2.27-3.35,3.75-4.53a26.76,26.76,0,0,0-1.78-3.55c-.35-.58-.73-1.15-1.11-1.71-1.9,2.84-4,5.6-6,8.32.42,1.75.84,3.5,1.28,5.25A44.65,44.65,0,0,0,121.83,208.75Z"/><path class="cls-2" d="M122.92,209.84a45.19,45.19,0,0,1-4.64,4c.35,1.37.7,2.74,1.07,4.11a8.76,8.76,0,0,0,6.83-6.6,10.69,10.69,0,0,0,0-5.06A25.1,25.1,0,0,1,122.92,209.84Z"/><path class="cls-3" d="M117.78,76.1c-1.92-12.94,9.83-19.14,20.74-21.49C127.1,50.16,123,33.82,135.07,26.3c10.84-6.75,29.79.58,29.39,13.39,2.86-4.66,8.87-7.41,14.12-4.47a10.8,10.8,0,0,1,5,11.65c8.31-4.51,19.69-.25,21.35,10.34S197,75.09,187.67,73.36c2.16,2.53,3.87,5.44,3.77,8.81a10.58,10.58,0,0,1-6.2,8.87c-6.28,3.08-12.21.14-16-4.7.55,5.19.06,10.43-2.89,15s-7.85,7.56-13.25,6.89c-5.55-.69-10-5.21-11.94-10.28-2.16-5.66-1.24-11.66.67-17.27-4,3.8-9,6.59-14.84,5.52C121.85,85.2,118.52,81.1,117.78,76.1Zm11.41,8.21c6.28.37,11.28-4.76,14.87-9.22.82-1,2.07.29,1.65,1.28-3.9,9.18-6.89,26.27,6.61,29.39,6.34,1.46,11.84-3.65,13.79-9.27,1.83-5.3.93-11.11-.35-16.42a1.14,1.14,0,0,1,2.2-.61c2.13,6.23,8,12.42,15.19,10,4.14-1.4,6.94-5.61,5.59-10-1-3.28-3.8-5.83-6.22-8.14a1.16,1.16,0,0,1,1.4-1.81c9.24,5.39,21.06-2.1,18.51-13-2.34-10-14.37-11.86-20.92-5.11a9.19,9.19,0,0,1-.93,1.05c-1.12,1.1-2.58-.5-1.67-1.67.29-.37.6-.71.91-1C182.61,46,182.16,40,178,37.24c-5.56-3.73-12.52,1.5-13.38,7.21-.11.67-.91.79-1.42.5l-.11.3c-.28.62-1.33.17-1.09-.46,5.63-14.82-14-23.58-25.37-17.33-12.6,6.91-7,25.63,6.67,26.34,1,.06,1.36,1.72.25,1.88-9.82,1.41-22.82,4.92-23.89,16.77C119.13,78.69,122.62,83.93,129.19,84.31Z"/><path class="cls-3" d="M167,64.21c.25-2.75-1.11-5.79-3.85-6.76a5.89,5.89,0,0,0-7.08,3c-.86,2,.11,5.5,2.75,5.51a2.48,2.48,0,0,0,1.94-4c-.51-.67-1.68.22-1.18.91-1.71-.1-2.27-.59-1.7-1.47a1.6,1.6,0,0,1,.69-.94,3.61,3.61,0,0,1,6.26,1.87c1,3.86-2.86,7-6.52,6.25a6.24,6.24,0,0,1-4.72-7.12c.57-3.72,4.13-5.72,7.53-6.32a.44.44,0,0,0,0-.85c-7.37-1.44-12.34,7.15-8.22,13.15C156.63,72.84,166.33,71.24,167,64.21Z"/><path class="cls-3" d="M81.69,130.49c6.5-.51,14,2.16,13.24,10-.83,8.34-9.62,9.39-16.4,8,4.43,6.1,6.23,15.34-1.6,19.71-9,5-15-4.77-17-12.36-4.51,7-16.81,10.92-22.95,4.44-3-3.14-3.08-7.94-1.5-11.76,1.65-4,5.08-6.67,8.83-8.7-7.37-.45-14.18-6.06-11.76-14.51a10.06,10.06,0,0,1,8.57-7.16,14.46,14.46,0,0,1,10.41,2.9c-3.61-6-3.64-14.08,4.36-17.13,3.84-1.47,8,0,10.63,3,3.07,3.41,3.53,7.84,2.72,12.09,3.9-4.14,9.56-6.86,14.71-2.76C89.55,120.72,86,126.55,81.69,130.49Zm-4.2.85c4.28-3,12.35-10.49,4.1-14.68-5.68-2.88-10.79,2.19-13.57,6.64-.48.77-1.84.27-1.5-.63,1.63-4.39,2.38-9.43-.44-13.53s-7.4-5.22-11.44-2.46c-7.44,5.1-2.7,14.6,2.76,18.87.55.43-.16,1.31-.73,1l0,0a.88.88,0,0,1-1.48.35c-4.76-5.13-17.6-12-20.72-1-2.55,9.05,7.42,13.81,14.88,11.62,1-.27,1.61,1.21.68,1.62-6.55,2.89-16.53,8.55-13.11,17.4,3.73,9.63,19.73,4.15,22.52-3.42.27-.73,1.5-.91,1.68,0,1.25,6.4,6.11,17.75,14.75,13.31,8-4.12,4.05-14.22-.76-18.91a1,1,0,0,1,1-1.63c5.4,1.67,13,2.75,16.08-3.3,1.89-3.67.49-7.46-3.08-9.43s-7.31-1.14-10.79,0C77.11,133.55,76.63,132,77.49,131.34Z"/><path class="cls-3" d="M61.07,132.62c-1.24,1.77-.89,4.5,1.35,5.29A2.31,2.31,0,0,0,65.48,135c-.26-.81-1.59-.72-1.54.21l-1.35.68c-.07-.64-.15-1.27-.23-1.91.18-.71,1.34-1.31,2-1.4A3.07,3.07,0,0,1,67.43,135c.79,2.61-1.19,5.21-3.72,5.79-2.68.62-5.16-1.55-5.56-4.12-.47-3,2.36-5.59,5.17-6,.32,0,.48-.56.08-.63-5.74-1-9.46,5.56-6,10.16s11.14,2.87,12.08-2.95C70.27,132.63,64.4,127.88,61.07,132.62Z"/><path class="cls-3" d="M140.43,0h1.91c.12.4.25.79.4,1.18l.6-1.18h1.51l-1.56,2.42c.08.16.15.32.23.47a32.25,32.25,0,0,0,8,9c.7-2.38,1.49-4.73,2.25-7.09A47.68,47.68,0,0,1,155.26,0H157a33.46,33.46,0,0,1-1.76,4.86c-1,2.56-1.87,5.14-2.89,7.67,1,.79,2,1.56,3,2.29,1.75,1.3,3.57,2.5,5.42,3.63,1.07-3.67,1.94-7.38,2.9-11.08-1.8-2.45-3.58-4.91-5.37-7.37h2.17l1.1,1.55a.16.16,0,0,1,.1,0c2.71.14,5.41.46,8.11.62s5.55,0,8.1.59a.64.64,0,0,1,0,1.27c-2.52.39-5.31-.12-7.83-.4s-5.17-.56-7.71-1c.72,1,1.44,2,2.17,3a.61.61,0,0,1,.82.69l-.06.34c1.21,1.63,2.42,3.25,3.66,4.86,1.75.1,3.5.21,5.24.33a27.94,27.94,0,0,1,5.79.57l0,0A59.4,59.4,0,0,0,177.47,0h2.28c2.63,8.53,3,18,3,26.67a1,1,0,0,1-.27.69.5.5,0,0,1,.09.45l.24.09a.47.47,0,0,1-.24.89C169.56,28.11,145.1,15.05,140.43,0Zm38.95,26.61a52.26,52.26,0,0,1-8.3-9,39.2,39.2,0,0,1-1.1,5.61C173.06,24.52,176.24,25.5,179.38,26.61Zm1.19-6a18.32,18.32,0,0,1-2.36-.26L175.83,20c1.6,1.87,3.23,3.72,4.92,5.51C180.7,23.91,180.64,22.27,180.57,20.62ZM169.94,12.8Q172.4,16,175,19c1,0,2,0,3,0a23.67,23.67,0,0,1,2.51.05c-.1-1.9-.22-3.8-.4-5.69a.53.53,0,0,1-.3.14,28.37,28.37,0,0,1-5.81-.36Q172,13,169.94,12.8Zm-8.42,6.11a75.45,75.45,0,0,0,7.23,3.81h0a35.4,35.4,0,0,1,.59-3.87c.16-.95.3-1.92.51-2.88-.87-1.18-1.72-2.37-2.56-3.55a.42.42,0,0,1-.09-.14c-.81-1.13-1.6-2.25-2.4-3.35A61.63,61.63,0,0,1,161.52,18.91Z"/><path class="cls-3" d="M106.42,162.94c-5.59-16.91,2.64-62.39,29.06-51.64,10.51,4.27,11.8,16.49,7.34,25.76-6.48,13.45-21.19,20.17-34.35,25.28a1,1,0,0,1-.75,0,.5.5,0,0,1-.38.25v.26A.47.47,0,0,1,106.42,162.94Zm6.9-4.8a18.41,18.41,0,0,1-.61-2.29c-.19-.78-.38-1.55-.56-2.33-1.17,2.17-2.3,4.36-3.36,6.58C110.3,159.46,111.82,158.8,113.32,158.14Zm6.55-3.06a.51.51,0,0,1-.24-.22,28.52,28.52,0,0,1-1.78-5.55c-.38-1.3-.74-2.6-1.11-3.91q-2,3.43-4,6.93c.38.94.72,1.89,1.07,2.84a22.59,22.59,0,0,1,.86,2.36C116.45,156.74,118.18,155.94,119.87,155.08Zm15.39-10.92a104.62,104.62,0,0,1-4.63-20.46q-3.24,4.89-6.44,9.82a.9.9,0,0,0,0,.09c.84,2.57,1.53,5.2,2.36,7.78s2.05,5.15,2.39,7.76a.64.64,0,0,1-1.18.45c-1.28-2.2-1.82-5-2.48-7.44s-1.35-5-1.84-7.56c-.68,1-1.36,2.08-2,3.12a.61.61,0,0,1-.34,1l-.35.07c-1.08,1.71-2.14,3.44-3.19,5.17.54,1.67,1.08,3.34,1.6,5a29,29,0,0,1,1.58,5.6s0,0,0,0A52.53,52.53,0,0,0,135.26,144.16Zm.91-28.94c2,5.73,4.37,11.71,5.75,17.69,2.26-7,1.59-14.69-5.29-18.7a.8.8,0,0,1-.13.5Zm-.9,1.39c-1.24,1.9-2.47,3.8-3.73,5.7,1.33,7,2.83,13.93,4.71,20.76a29.94,29.94,0,0,0,4.85-7.94C138.54,129.32,137,122.75,135.27,116.61Zm-17.59-.78c4.79.52,9.69.87,14.41,1.76a.66.66,0,0,1,.29.14c.87-1.32,1.73-2.63,2.61-3.94a.77.77,0,0,1,.29-.28c-.26-.12-.51-.24-.78-.35A16,16,0,0,0,117.68,115.83ZM111,127.9c2.47-.21,5-.33,7.42-.49,2.25-.14,5-.76,7.18,0a.46.46,0,0,1,.27.31q2.84-4.4,5.72-8.77a92,92,0,0,1-14.82-2.19c-.11.13-.24.25-.35.39A32,32,0,0,0,111,127.9Zm-2.8,11c3.81-.34,7.58-.88,11.38-1.32q3-4.66,6-9.31c-2,.86-4.52.52-6.67.56-2.73,0-5.47.12-8.2.09-.37,1.22-.72,2.43-1,3.61C109,134.65,108.54,136.78,108.15,138.92Zm-1.08,9a34.43,34.43,0,0,1,3.82-.86c.94-.2,1.9-.42,2.86-.57q1.19-1.86,2.39-3.67a.38.38,0,0,1,.09-.15c.76-1.16,1.52-2.31,2.25-3.45a61.44,61.44,0,0,1-10.49.55,76.3,76.3,0,0,0-.92,8.13Zm.24,11.29a52.26,52.26,0,0,1,5.36-11,38.53,38.53,0,0,1-5.63,1C107,152.57,107.21,155.89,107.31,159.21Z"/><path class="cls-3" d="M171.65,235.48a36.78,36.78,0,0,1,8.1,14.52h-2.28a42.56,42.56,0,0,0-1.95-4.89A105.08,105.08,0,0,1,154.77,242q2.83,4,5.71,8h-2.17c-.37-.52-.75-1-1.13-1.55A6.32,6.32,0,0,1,157,250h-1.77a6.91,6.91,0,0,1,1.17-1.93.45.45,0,0,1,.38-.14c-2.05-2.83-4.07-5.67-6.09-8.51A77.76,77.76,0,0,1,144.85,250h-1.51c2-3.91,4-7.9,6.27-11.6a.62.62,0,0,1,.24-.22l-2.72-3.87a.85.85,0,0,1-.16-.37l-.6.6a16.17,16.17,0,0,0-4,15.46h-1.91c-1.74-5.58-.75-11.44,4.56-17.05C152.79,224.71,164.64,228,171.65,235.48Zm-4.19-.67c-5.74-4.67-13.1-6.82-19.35-1.87a.78.78,0,0,1,.43.3l.35.49C155,234,161.39,233.92,167.46,234.81Zm7.4,9a29.68,29.68,0,0,0-5.63-7.41c-6.35.27-13-.65-19.38-1.3,1.33,1.84,2.65,3.68,4,5.54C160.78,241.91,167.82,243.05,174.86,243.79Z"/><path class="cls-3" d="M128.67,207.65a11,11,0,0,1-9.53,12.51c-18,1.92-13.15-24.64-8.35-33.51a.46.46,0,0,1,.85.17.81.81,0,0,1,1.23-.22C119,191.88,127.54,199.08,128.67,207.65Zm-11.14-14.73a48.74,48.74,0,0,0-3,4.13.5.5,0,0,1-.21.2c.68,2.92,1.35,5.84,2,8.76,1.67-2.71,3.37-5.43,5.19-8a.75.75,0,0,1,.24-.23A45.25,45.25,0,0,0,117.53,192.92ZM112.14,188q.94,3.85,1.84,7.74a13.66,13.66,0,0,1,2.67-3.7C115.18,190.66,113.65,189.31,112.14,188Zm-3.7,12.24,3.12,1c.71.22,1.46.39,2.15.68-1-4.43-1.89-8.88-2.56-13.37A79.09,79.09,0,0,0,108.44,200.27Zm-.14,8.35c2.59,1,5.2,1.93,7.75,3l.06,0q-1.11-4.19-2.1-8.42a11.41,11.41,0,0,1-2.75-.92l-2.93-1.17A29.05,29.05,0,0,0,108.3,208.62Zm9.53,9.43c-.35-1.25-.69-2.52-1-3.78a.58.58,0,0,1-.13-.48l-.36-1.3a.77.77,0,0,1-1,.36c-2.32-1-4.58-2.1-6.85-3.19.81,3.91,2.94,7,7.31,8.13A8,8,0,0,0,117.83,218.05Zm.12-5.52a44.65,44.65,0,0,0,3.88-3.78c1.25-1.4,2.27-3.35,3.75-4.53a26.76,26.76,0,0,0-1.78-3.55c-.35-.58-.73-1.15-1.11-1.71-1.9,2.84-4,5.6-6,8.32C117.09,209,117.51,210.78,118,212.53Zm8.26-6.25a25.1,25.1,0,0,1-3.29,3.56,45.19,45.19,0,0,1-4.64,4c.35,1.37.7,2.74,1.07,4.11a8.76,8.76,0,0,0,6.83-6.6A10.69,10.69,0,0,0,126.21,206.28Z"/><path class="cls-3" d="M183.44,139.9a.82.82,0,0,1,.28-1.23c7.22-3.57,17.18-8.68,25.52-6.4a11,11,0,0,1,7.84,13.64c-5.19,17.3-27.81,2.57-34.13-5.3A.46.46,0,0,1,183.44,139.9Zm11.16,8.16,2.11-2.5a18.3,18.3,0,0,1,1.46-1.71c-4.47-.79-8.92-1.7-13.32-2.83A80,80,0,0,0,194.6,148.06Zm7.64,3.36c1.91-2,3.8-4,5.79-6l.06,0q-4.29-.6-8.57-1.33a11.68,11.68,0,0,1-1.92,2.18l-2.21,2.25A28.89,28.89,0,0,0,202.24,151.42Zm12.39-5.13c-1.29-.16-2.59-.34-3.89-.52a.56.56,0,0,1-.49-.07c-.44-.06-.89-.11-1.33-.18a.77.77,0,0,1,0,1c-1.81,1.75-3.71,3.41-5.6,5.08,3.92.77,7.61,0,10.34-3.59A8.53,8.53,0,0,0,214.63,146.29ZM207,134a26,26,0,0,1,2,4.41,44.48,44.48,0,0,1,1.88,5.83c1.4.21,2.8.42,4.2.61a8.76,8.76,0,0,0-3.43-8.86A10.68,10.68,0,0,0,207,134Zm-8.11.42c1.88,2.85,3.62,5.81,5.33,8.77,1.78.29,3.55.58,5.33.85a45.36,45.36,0,0,0-2-5c-.8-1.7-2.21-3.39-2.73-5.21a25.57,25.57,0,0,0-4,.26C200.25,134.15,199.58,134.28,198.92,134.42Zm-7.57,2.41c.86,1.46,1.63,3,2.64,4.36a.43.43,0,0,1,.1.27c3,.51,5.92,1,8.88,1.51-1.86-2.59-3.7-5.21-5.4-7.9a.94.94,0,0,1-.12-.3A45.12,45.12,0,0,0,191.35,136.83Zm-6.6,3.07c2.62.42,5.23.86,7.84,1.3a13.41,13.41,0,0,1-2.37-3.89C188.35,138.12,186.52,139,184.75,139.9Z"/><path class="cls-3" d="M20.31,178.7a.47.47,0,0,1,.49-.72.81.81,0,0,1,.27-1.22c7.23-3.58,17.19-8.68,25.53-6.4A11,11,0,0,1,54.44,184C49.25,201.3,26.63,186.56,20.31,178.7Zm24.08-6.61a25.63,25.63,0,0,1,2,4.41,46.42,46.42,0,0,1,1.88,5.82l4.2.62A8.75,8.75,0,0,0,49,174.08,10.65,10.65,0,0,0,44.39,172.09Zm-8.11.41c1.87,2.86,3.62,5.82,5.33,8.77,1.78.3,3.55.58,5.33.86a43.69,43.69,0,0,0-2-5c-.8-1.69-2.2-3.39-2.72-5.2a25.57,25.57,0,0,0-4,.26C37.61,172.23,36.94,172.36,36.28,172.5Zm-7.58,2.42c.87,1.46,1.64,3,2.65,4.35a.56.56,0,0,1,.1.28l8.87,1.51c-1.85-2.59-3.69-5.21-5.39-7.9a.8.8,0,0,1-.12-.31A45.78,45.78,0,0,0,28.7,174.92ZM22.1,178c2.62.41,5.24.85,7.85,1.3a13.46,13.46,0,0,1-2.37-3.9C25.71,176.21,23.88,177.09,22.1,178ZM32,186.14c.7-.83,1.41-1.66,2.11-2.5a21.29,21.29,0,0,1,1.46-1.71c-4.47-.78-8.92-1.7-13.32-2.82A78.21,78.21,0,0,0,32,186.14Zm7.64,3.37c1.91-2,3.8-4,5.79-6l.06,0q-4.29-.62-8.58-1.33A11.22,11.22,0,0,1,35,184.34l-2.22,2.26A29.55,29.55,0,0,0,39.6,189.51ZM51,186.15a8.4,8.4,0,0,0,1-1.77l-3.89-.52a.64.64,0,0,1-.49-.07l-1.33-.18a.77.77,0,0,1-.05,1c-1.81,1.75-3.71,3.41-5.6,5.08C44.55,190.51,48.24,189.75,51,186.15Z"/><path class="cls-3" d="M187.31,181.92c4.94,6.35,6.91,16.27-.45,21.65-7,5.08-14.07.22-16.85-6.55-.83,5-4,9.17-7.36,13s-7.34,6.72-12.42,5.05c-10.1-3.32-9.12-16.07-2.27-22-5.36,1.1-13.33-1.27-14.08-6.72-.88-6.36,7.74-9.25,13.77-10.54-9.47-1.3-16.41-12.49-9.71-21.14,6.43-8.31,19.86-5.54,22.44,4,1-6.86,6.39-13.5,14-12s9.06,10.17,6.91,16.67c5.9-3.66,15.42-1.13,18.14,5.43C202.75,176.69,194.62,182.65,187.31,181.92Zm-2.22-.44-.38-.11a.93.93,0,0,1-.51-1.27c-.15-.49.56-.91,1-.53l.12.12c3,.1,6,.4,8.72-1.15a7.21,7.21,0,0,0,3-9.95c-3.11-5.55-12.62-6.86-17-2.32a1,1,0,0,1-.18.13,1,1,0,0,1-1.74-.87c1.53-5.69,4-15.56-4.77-16.69-7.3-.94-10.48,6.27-11.81,12.06a.6.6,0,0,1-.71.46c0,.14,0,.27,0,.41,0,1-1.54,1.23-1.74.24-1.85-9.22-12.77-14.75-19.41-6.07a11.18,11.18,0,0,0,.88,14.21c2.92,3.2,6.88,4.11,11,4.34a.66.66,0,0,1,.57.86c.64.54.7,1.7-.33,1.89-4.51.83-12.69,2-15,6.59-1.81,3.52,1.89,5.52,4.71,6.53a12.37,12.37,0,0,0,8.86.29c.76-.29,1.13.85.52,1.25l-.18.11a.71.71,0,0,1-.09.85c-3.27,3.59-6.51,7.46-5.6,12.67.88,5,5.7,8.81,10.77,6.89,6-2.29,12.17-11.76,13.18-17.84a.51.51,0,0,1,.26-.39.87.87,0,0,1,1.6-.35c1.87,2.84,3,6.52,6.09,8.37,3.72,2.22,8.57.43,10.8-3C191.48,193.27,188.52,186.71,185.09,181.48Z"/><path class="cls-3" d="M167.2,172a4.59,4.59,0,0,0-4.57,4.86c.16,2.37,2.12,4.61,4.64,4.32,2.32-.27,3.61-3,1.72-4.61a.86.86,0,0,0-1.21,1.22c-.52-.6-1.88,2.53-2.89-.19a2.59,2.59,0,0,1,.41-2.67c1.57-1.57,4.29-.49,5.35,1a5.16,5.16,0,0,1-2.44,7.86c-7.4,2.71-11.53-8.53-5-12.24.5-.29.17-1.15-.4-1-6.73,2.31-6.18,11.94-.26,14.93,5.66,2.86,12.67-2,11.06-8.41A6.49,6.49,0,0,0,167.2,172Z"/><path class="cls-3" d="M96.51,190.48c5.37,13.12-12.92,16.45-18.34,24a1,1,0,0,1-.86.4,1,1,0,0,1-1.63-.53c-1.36-7.64-10-9.55-13.53-15.85a12.41,12.41,0,0,1,.31-13.12c5.26-7.6,15.5-4.84,17.32,3.06C83.94,182.24,93.56,183.28,96.51,190.48Zm-3.06-1.11c-3.56-4.77-10-3.66-12.78,1.3a.81.81,0,0,1-.61.45h0c0,.78-1.29,1-1.41.19-.88-5.8-6-11-12-7.16s-4.72,11.71-.47,16.16c3.88,4.07,9.35,6.29,11.12,11.73,2.75-4.32,9.41-6,13.12-9.23C94.43,199.4,97,194.1,93.45,189.37Z"/><path class="cls-3" d="M204.77,88.74c3,7.15,11.85,7.14,16.65,12.52A12.41,12.41,0,0,1,224,114.13c-3.49,8.56-14.08,8.11-17.58.79-2.7,7-12.32,8.06-16.76,1.67-8.1-11.63,9-18.86,12.66-27.44a1,1,0,0,1,.76-.57A1,1,0,0,1,204.77,88.74Zm-1.13,2.63c-1.74,4.81-7.87,7.93-10.79,11.87-3.13,4.2-4.46,9.93,0,13.77s10.59,1.39,12.18-4a.8.8,0,0,1,.51-.58h0c-.16-.76,1-1.26,1.34-.49,2.12,5.47,8.23,9.45,13.22,4.39s2-12.46-3.06-15.88C212.38,97.27,206.56,96.3,203.64,91.37Z"/><path class="cls-3" d="M28.62,67.71a7.88,7.88,0,0,1,4.69-8.38c5.16-2.2,10.51.39,14.39-4.78.39-.53,1.44-.44,1.38.38,0,0,0,.07,0,.1a.89.89,0,0,1,.65.66c1.61,5.85,6.47,16.58-.33,21-4.61,3-9.18-.92-9.45-5.48C36.71,75,29.43,73.16,28.62,67.71Zm11.34.9a.67.67,0,0,1,1-.13.56.56,0,0,1,.44.56,7.84,7.84,0,0,0,.75,4.24q4.45,4.64,7.58.07c1.22-1.92,1-4.56.69-6.66-.52-3.1-1.47-6.17-2.28-9.22-2,2.5-6.59,2.82-9.48,3-4.15.24-9.4,2.57-7.72,7.74C32.3,72.44,37.94,71.84,40,68.61Z"/><path class="cls-3" d="M169.71,113.92s0,.07,0,.11a.92.92,0,0,1,.66.66c1.61,5.84,6.46,16.58-.34,21-4.61,3-9.18-.91-9.45-5.47-3.22,3.78-10.51,1.91-11.32-3.55a7.9,7.9,0,0,1,4.69-8.38c5.16-2.19,10.51.39,14.39-4.77C168.72,113,169.76,113.1,169.71,113.92Zm-1,2.55c-2,2.49-6.59,2.81-9.47,3-4.16.25-9.41,2.58-7.73,7.75,1.38,4.23,7,3.63,9.05.41a.64.64,0,0,1,1-.13.55.55,0,0,1,.44.56,8,8,0,0,0,.75,4.24q4.45,4.64,7.59.07c1.22-1.92,1-4.56.68-6.67C170.5,122.59,169.55,119.51,168.74,116.47Z"/><path class="cls-3" d="M75.84,5.73c.68,1.82,3.3,1.81,4.85,2,3.24.33,7.24.91,10.4-.05a.93.93,0,0,0,.35-.23,41.81,41.81,0,0,0,4.83,9c1.19,1.69,3.34,5.7,5.6,6s3.11-3,3.74-4.53a46,46,0,0,0,3-11.47s0,0,0-.09a52.34,52.34,0,0,0,11.46-.33c1.73-.23,4.83-.21,5-2.58C125.06,2,124,.89,122.75,0h-4.06c1.36.74,2.83,1.68,3.09,2.61.71.73.43,1-.83.82l-2.12.31c-1.21.15-2.43.26-3.65.36-2.45.18-4.9.33-7.35.43a.79.79,0,0,0-.8.84.83.83,0,0,0-.56.67,54,54,0,0,1-1.67,7.54c-.42,1.36-.92,2.69-1.47,4-.26.64-.54,1.26-.85,1.88-.55.59-1,.46-1.31-.41-1.91-1.28-3.53-4.45-4.75-6.35s-2.49-4.08-3.64-6.19a.8.8,0,0,0-1.17-.21.71.71,0,0,0-.52-.39c-2.06-.44-4.24-.17-6.34-.26-1,0-2-.11-3-.19-.68-.06-1.35-.13-2-.21-1.45,0-1.78-.21-1-.7.31-.79,2.14-1.84,2.78-2.4.8-.68,1.59-1.37,2.37-2.06l.1-.1H80.43l-1,.86C78.21,1.92,75.05,3.62,75.84,5.73Z"/><path class="cls-3" d="M110.65,243.75c.54-3.12.67-6.38,1-9.52.18-2,.6-4.64-1.31-6-1.46-1-2.84-.49-4.12.51a85.72,85.72,0,0,0-8.4,7.89v0A40.2,40.2,0,0,0,90.21,233c-1.63-.58-4.59-2-6.33-1.2s-.93,3-.49,4.35c1,3.13,2,6.24,3.19,9.3a32.24,32.24,0,0,0-6.15,4.6h3.51a24.85,24.85,0,0,0,3.34-3.47.63.63,0,0,0,.83-.76c0-.11-.06-.21-.08-.32l.06-.09a.31.31,0,0,0-.2-.47c-.45-1.83-.93-3.64-1.44-5.45-.23-.82-2.12-5.34-1.13-5.79a10.36,10.36,0,0,1,2.62.72c.86.27,1.72.57,2.56.9a42.53,42.53,0,0,1,6.21,3.14.92.92,0,0,0,.77.12.87.87,0,0,0,1-.13c1.68-1.41,3.35-2.82,5-4.32,1.34-1.26,4.9-6.32,6.48-2,.46,1.28-.47,4.29-.63,5.66a59.89,59.89,0,0,0-.62,7.06.92.92,0,0,0,1,.87,1.09,1.09,0,0,0,.42.25,44.6,44.6,0,0,1,6.76,3c.45.26,1.16.61,1.91,1h4.06c-.86-.63-1.8-1.15-2.45-1.57A47.51,47.51,0,0,0,110.65,243.75Z"/><path class="cls-3" d="M215.37,187.67c-7.68.66-12.43,8.74-9.25,15.41,3.09,7.45,16.78,7.45,16.78-1.86,0-3.34-2.61-6.76-6.1-6.82-3.79-.06-6.89,3.87-5.62,7.47a.89.89,0,0,0,.85.64l.48,0a3.34,3.34,0,0,0,3.32.92,3.44,3.44,0,0,0,2.17-4.31.6.6,0,0,0-1.15.31,1.84,1.84,0,0,1-2.47,2.05.44.44,0,0,0-.26-.2.75.75,0,0,1-.13-.06c-.37-.37-.64-1-1-1.33.06-1.83,3.22-4.46,5.76-2.8a5,5,0,0,1,1.15,7.18,6.58,6.58,0,0,1-7.08,2.21c-2.27-.67-3.79-2.32-5.32-4-1.66-6.06,1.94-12.72,8.9-12.71,7.42,0,9.9,6.89,9.21,13.15-.08.75,1.11,1,1.43.38C230.78,195.54,223.34,187,215.37,187.67Z"/><path class="cls-3" d="M74.11,27.9c4-6.61.18-15.19-7.09-16.5-7.85-1.86-15.86,9.24-8.31,14.69,2.71,1.95,7,1.83,9.1-1,2.27-3,.89-7.85-2.77-8.93a.89.89,0,0,0-1,.31l-.24.43a3.35,3.35,0,0,0-2.69,2.15,3.42,3.42,0,0,0,2.23,4.28.6.6,0,0,0,.41-1.12,1.84,1.84,0,0,1-.22-3.19.53.53,0,0,0,.32-.1l.12-.07c.52-.08,1.19.06,1.68-.05,1.45,1.12,1.74,5.22-1.1,6.31a5,5,0,0,1-6.49-3.26,6.56,6.56,0,0,1,2.35-7c1.87-1.45,4.1-1.72,6.35-2,5.88,2.19,9.18,9,5.1,14.65-4.35,6-11.38,4-16-.22-.57-.5-1.5.29-1.15.94C58.72,35.8,70,34.77,74.11,27.9Z"/><path class="cls-3" d="M59.49,221.35a7.46,7.46,0,0,0-9,6.35c-.54,4.31,3.34,8.9,7.86,8.18a.83.83,0,0,0-.05-1.64c-2.71-.43-5.34-1.57-5.88-4.62a5.63,5.63,0,0,1,4.24-6.4,5.36,5.36,0,0,1,6.24,3.52c.44,1.49.16,3.58-1.46,4.29a3.38,3.38,0,0,1-4.23-1.78.42.42,0,0,0-.49-.28,1.44,1.44,0,0,1,.92-1.47,2.09,2.09,0,0,1,2.63,1.33c.17.55,1,.24.91-.27a3.25,3.25,0,0,0-4.38-2.65c-2,.84-2.81,4.29-.74,5.49a.77.77,0,0,0,.83,0c1.58,2.38,5.62,2.36,7.34-.29C66.77,227.15,63.61,222.27,59.49,221.35Z"/><path class="cls-3" d="M65,84.11a2.09,2.09,0,0,1,2.63,1.34c.17.54,1,.23.91-.28a3.25,3.25,0,0,0-4.38-2.65c-2,.84-2.81,4.29-.74,5.49a.75.75,0,0,0,.83,0c1.58,2.38,5.62,2.36,7.34-.29,2.54-3.92-.62-8.8-4.75-9.71a7.44,7.44,0,0,0-9,6.34c-.55,4.31,3.34,8.91,7.86,8.18a.83.83,0,0,0,0-1.63c-2.71-.44-5.34-1.58-5.88-4.63A5.61,5.61,0,0,1,64,79.84a5.35,5.35,0,0,1,6.24,3.52c.44,1.49.16,3.58-1.47,4.28a3.38,3.38,0,0,1-4.23-1.77.39.39,0,0,0-.48-.28A1.45,1.45,0,0,1,65,84.11Z"/><path class="cls-3" d="M2.34,127.41c.53.21.79-.59.37-.87A3.18,3.18,0,0,0,0,126.17V128A2.16,2.16,0,0,1,2.34,127.41Z"/><path class="cls-3" d="M1.63,132.29a.78.78,0,0,0,.5-.67c2.84.31,5.4-2.81,4.46-5.83s-3.79-4.25-6.59-4v1.94a4.81,4.81,0,0,1,2.41.34c1.43.61,2.86,2.17,2.37,3.87A3.38,3.38,0,0,1,.71,130a.42.42,0,0,0-.53.19,1.53,1.53,0,0,1-.18-.18v2.24A2.34,2.34,0,0,0,1.63,132.29Z"/><path class="cls-3" d="M6.54,133.38a.82.82,0,0,0-1.29-1c-1.53,1.33-3.33,2.38-5.25,2.22v1.83A6.75,6.75,0,0,0,6.54,133.38Z"/><path class="cls-3" d="M245.23,134.21a7.42,7.42,0,0,0,4.77,2.23v-1.83a5,5,0,0,1-2.06-.65A5.48,5.48,0,0,1,250,123.71v-1.94a7.27,7.27,0,0,0-3.91,1.47A7.44,7.44,0,0,0,245.23,134.21Z"/><path class="cls-3" d="M247.87,128.22a3.63,3.63,0,0,0,2.13,4.07v-2.24a1.39,1.39,0,0,1-.36-1.47A1.57,1.57,0,0,1,250,128v-1.8A3.09,3.09,0,0,0,247.87,128.22Z"/><path class="cls-3" d="M110.87,95a1.11,1.11,0,0,0-2.21,0c-.31,12.64-19,14.79-25.34,5.47-5.06-7.41-.4-18.2,8.22-20.07,10.66-2.32,20,12.59,9.37,19-4.63,2.8-11.63,1-13.2-4.56-.9-3.14.34-7.13,3.74-8.28a6.34,6.34,0,0,1,5,.47q5.25,5.83-1.44,7.88a.66.66,0,0,0-.53,0,2.18,2.18,0,0,1-1.74-2.24c.21-1.49,2.34-2.29,3.59-1.75.5.21,1.06-.36.62-.79-2.07-2-5.71-.66-6.3,2.09s2.53,5.61,5.09,4.52c3.13.84,5.33-3.5,4.93-6.52-.61-4.66-5.56-6.94-9.8-5.61-5,1.58-6.72,7.52-4.7,12.08s7.15,6.75,12,5.89c12.86-2.28,11.37-20.2.2-23.86C86.42,74.75,75.54,87.93,80.2,99.15,85.82,112.68,110.78,111.06,110.87,95Z"/><path class="cls-3" d="M78.22,35.23a8.46,8.46,0,0,1,2.59-5.71A11.27,11.27,0,0,1,90,26.63c6,.7,7.28,7.18,5.62,12.2,5.12-2.68,13.07-1.56,13.57,5.24.39,5.23-5.73,10.55-10.88,9.61a10.22,10.22,0,0,1,1.74,6.94,8.61,8.61,0,0,1-5.55,7.28A9.82,9.82,0,0,1,85,66a8.8,8.8,0,0,1-2.79-7.33c-3.3,4.17-9.61,7.85-13.38,2.51C65.76,56.78,68.21,52.38,72,50c-3.89-1.38-6-7-4.5-10.73A7.68,7.68,0,0,1,78.22,35.23Zm-9.07,5.24a6,6,0,0,0,1.46,6.06c1.3,1.29,2.84,1.56,4.48,2.09l.45-.14c.5-.12.84.6.36.85l-.05,0a.69.69,0,0,1-.53.78,5.73,5.73,0,0,1-1,.17c-3.13,2.14-6.19,5.85-3.65,9.46,3.78,5.36,9.12-1.85,11.63-4.43a.76.76,0,0,1,.42-.24c0-.13,0-.25.07-.37a.63.63,0,0,1,1.23.16c-.18,3.49-.28,7.47,2.84,9.74a7.89,7.89,0,0,0,6.8,1.16,6.5,6.5,0,0,0,4.23-6.25c0-2.69-1.26-4.26-2.79-6.27a.74.74,0,0,1,.36-1.18.71.71,0,0,1,1-.77c4.19,2,11.45-2.46,10.43-7.55-.54-2.66-3.37-4.19-5.88-4.16-2.67,0-4.59,1.51-6.87,2.62a.87.87,0,0,1-.7.06.69.69,0,0,1-.63-1l0-.07a1.42,1.42,0,0,1,.08-.18c1.88-4.18,2.5-11.94-3.77-12.31a9.61,9.61,0,0,0-6,1.56c-2.3,1.63-2.66,3.86-2.93,6.36.12.12.25.22.37.35a.54.54,0,0,1-.66.83.63.63,0,0,1-1-.09,4.14,4.14,0,0,1-.37-.84A6.52,6.52,0,0,0,69.15,40.47Z"/><path class="cls-3" d="M91.07,49.68c2.44-3.39-1.15-9-5.29-8a3.25,3.25,0,0,0-2.65,3.53,2.52,2.52,0,0,0,3.08,2.21.66.66,0,0,0,0-1.26c-1-.13-1.24-.91-.74-2.36a2.24,2.24,0,0,1,2.4,0A4,4,0,0,1,90,47.47c-.44,2.53-3.54,2.82-5.48,2.19s-3.82-1.89-3.82-4a4.37,4.37,0,0,1,2.64-3.92c.5-.22.11-.89-.35-.82a5,5,0,0,0-3,8C82.51,52,88.42,53.36,91.07,49.68Z"/><path class="cls-3" d="M0,113.41v-2.56a30.31,30.31,0,0,0,3.19.9c5.77-3,11.63-6,17.63-8.53-2.93-1.7-5.85-3.43-8.74-5.24a67.53,67.53,0,0,1-12.08,6V101.6c.23-.09.47-.17.7-.27,3.26-1.36,6.36-3,9.51-4.53Q6,94.13,1.88,91.32L0,92.18V90.06H0l0,0V86.7q3.17,2.23,6.36,4.43c-.2-3.12,0-6.28,0-9.39a67.74,67.74,0,0,1,.4-9.23c-2.24-.66-4.51-1.2-6.8-1.7V68.37c.74.16,1.47.31,2.2.48,7.46,1.77,15.67,4.06,21.9,8.73a20.12,20.12,0,0,1,1.37,30.94C18.44,115.09,8.71,116.09,0,113.41ZM16.86,98.07s0,0,0,0c.37-6.92-.09-14.35,1-21.17a.44.44,0,0,1,.07-.17c-1-.48-1.94-.92-2.92-1.32-2.12-.87-4.28-1.64-6.46-2.33a82.74,82.74,0,0,1-.22,10.32c-.12,2.9-.16,5.83-.57,8.71Q12.27,95.12,16.86,98.07Zm8.88,5.53a1,1,0,0,1,.44.47,18.61,18.61,0,0,0,3.09-15.25c-1.36-5.27-5.34-8.85-9.91-11.38.91,6.63-.28,14.22-1.28,20.76a.47.47,0,0,1-.37.41Q21.69,101.15,25.74,103.6ZM5.59,112.19c6.66.91,13.46-.65,18.67-5.84.25-.26.5-.53.74-.8a1.1,1.1,0,0,1-.33-.12c-.58-.32-1.15-.66-1.73-1a.79.79,0,0,1-.17.14C17.23,107.44,11.39,109.84,5.59,112.19Z"/><path class="cls-3" d="M250,68.37v2.44c-.74-.15-1.47-.33-2.21-.47A86.67,86.67,0,0,1,248,81.85a14.32,14.32,0,0,1-.11,3.42L250,86.7V90q-4-2.77-7.85-5.72c-2.23,1.28-5.21,1.56-7.7,2a26.32,26.32,0,0,1-6.6.85,42.64,42.64,0,0,0,4.71,9.7A161.6,161.6,0,0,1,250,90.06v2.12a168.64,168.64,0,0,1-16.61,5.94,38.53,38.53,0,0,0,5,5.78c.58.54,1.18,1.07,1.81,1.57a.45.45,0,0,1,.21-.22c3.09-1.44,6.38-2.39,9.55-3.65v2.33a42.84,42.84,0,0,1-8.78,2.3,32.77,32.77,0,0,0,8.78,4.62v2.56a33.15,33.15,0,0,1-11-5.82c-11.5-9.29-17.62-25.21-15.53-39.8a.59.59,0,0,1,.07-.2A1.2,1.2,0,0,1,224.68,66,111,111,0,0,1,250,68.37Zm-24.67,7.54c.91-.22,1.81-.45,2.7-.72.66-.2,1.35-.51,2.05-.72-1.76-1.55-3.5-3.11-5.19-4.71Q225,72.85,225.33,75.91ZM240.44,83c-3-2.34-6-4.73-8.86-7.21a10.28,10.28,0,0,1-3.14.94c-1,.21-2,.36-2.95.48a55.65,55.65,0,0,0,2,8.92c2.17-1,4.7-1.18,7-1.7A58.15,58.15,0,0,1,240.44,83Zm-2.15-4.71q4.11,3,8.26,6c-.09-.61-.16-1.16-.16-1.2,0-1.43,0-2.87,0-4.31,0-2.9-.16-5.8-.06-8.7-2.73-.48-5.47-.87-8.23-1.13A32,32,0,0,0,238.29,78.26Zm-1.84-9.46c-3.72-.3-7.46-.42-11.17-.37q5.78,4.44,11.58,8.77A23.5,23.5,0,0,1,236.45,68.8Z"/><path class="cls-3" d="M23.71,56C36.5,50.22,39.55,32.15,31.13,21.7c11.74,2.93,24.69-7.28,26.2-19.23A16.18,16.18,0,0,0,57.46,0H54.6a12.86,12.86,0,0,1-.45,4C51.33,14.26,39.87,22.5,29.27,19.7l0,0a1.2,1.2,0,0,0-1.7,1.7c7.53,9.22,8,23.28-2.52,30.72-5.81,4.12-13.21,2.51-18.89-1.15A18.43,18.43,0,0,1,0,44.5v4.27C5.63,55.7,15.61,59.72,23.71,56Z"/><path class="cls-3" d="M.84,1.85a4.62,4.62,0,0,0,.35,1.42,4,4,0,0,0,3.6,2.41C7.4,5.62,9.47,2.18,8,0H6.63C7,1.25,6.42,3.36,4.79,3.33A2,2,0,0,1,3.2,2.1,4.17,4.17,0,0,1,3,0H.9A6,6,0,0,0,.72,1.47.78.78,0,0,0,.84,1.85Z"/><path class="cls-3" d="M15.43,15.25A13.29,13.29,0,0,0,19.23,0H17.09a11.92,11.92,0,0,1-6,15.11A17.48,17.48,0,0,1,0,16v2.63C5.3,19.93,11,19.18,15.43,15.25Z"/><path class="cls-3" d="M11.11,9A6.26,6.26,0,0,0,12.8,1.35a4.08,4.08,0,0,0,0-1.35H10.62c.34.58.64,1.2.94,1.82.7,2.85-1.46,5.76-4.31,6.57A9.07,9.07,0,0,1,0,7.14V9.88C3.48,11.55,8.07,11.59,11.11,9Z"/><path class="cls-3" d="M34.85,235.19c4.87-4.52,6.95-12,7.08-18.64C42.16,205,36,196.13,24.61,193.48A34.33,34.33,0,0,0,0,196.88v3.34a29.78,29.78,0,0,1,19.86-4.93c11.39,1.24,18.89,8.22,19.24,19.82.23,7.5-2.06,16.29-8.36,20.78a20.35,20.35,0,0,0-2.54.81,1.1,1.1,0,0,0-.76,1.07.66.66,0,0,0,.63,1.1,1.52,1.52,0,0,1,.2-.06,1.7,1.7,0,0,0,.51,0c5.52-.86,10.84-1.57,16.3.15s9.27,5.74,9.52,11h2.86C57.21,239,45.2,234.26,34.85,235.19Z"/><path class="cls-3" d="M1.52,241a.64.64,0,0,0-.63-.31,5.17,5.17,0,0,0-.89.15v3c5.83-2.34,12.65-1.49,16.24,4.43a10.44,10.44,0,0,1,.85,1.75h2.14C16.55,243,8.77,237.87,1.52,241Z"/><path class="cls-3" d="M7.11,245.26A6.12,6.12,0,0,0,.9,250H3v-.09s0-.06,0-.08a4.37,4.37,0,0,1,4.26-2.34A4.51,4.51,0,0,1,10.62,250h2.19C12.41,247.44,9.64,245.4,7.11,245.26Z"/><path class="cls-3" d="M6.62,250a0,0,0,0,0,0,0H8a3.36,3.36,0,0,0-.46-.55C7.14,249.12,6.44,249.44,6.62,250Z"/><path class="cls-3" d="M199.61,7.69a23,23,0,0,0,15.53,5.23c-5.23,3.42-9.76,8-11.94,13.84-2.9,7.85-.29,15.56,6.35,20.49,11.3,8.38,30.07,4.82,36.18-7.89A19.18,19.18,0,0,0,250,48.77V44.5a21.52,21.52,0,0,1-2.65-9.57.71.71,0,0,0-.06-.25c.06-.31.13-.61.18-.92.17-1.08-1.42-2-1.95-.83-2.75,6.22-6,11.61-12.41,14.58a21.93,21.93,0,0,1-21.89-2.42c-7-5.17-8.26-13.4-3.83-20.81,3.71-6.22,10.2-9.78,15.67-14.21a.54.54,0,0,0-.1-.92.77.77,0,0,0-1.05-.51c-7.32,2.28-14.34,2.66-20.65-2.61a16.73,16.73,0,0,1-4.55-6H194.1A19.61,19.61,0,0,0,199.61,7.69Z"/><path class="cls-3" d="M249.15,9.44c.27.16.56.3.85.44V7.14a10.29,10.29,0,0,1-1.14-.82A7.67,7.67,0,0,1,245.81,0h-2.33A11.16,11.16,0,0,0,249.15,9.44Z"/><path class="cls-3" d="M250,18.58V16a17.14,17.14,0,0,1-8.52-4.58A14.35,14.35,0,0,1,237.74,0h-2.69C234,8.73,241.45,16.4,250,18.58Z"/><path class="cls-3" d="M236.93,227c-10.44-15.4-37.1-10.14-43.07,6.92A23,23,0,0,0,194.1,250h2.61a20.59,20.59,0,0,1-.62-14.73c5.61-17.19,30.43-19.91,40.61-5.34a.85.85,0,0,0,1.33.12c.82.75,2.45.14,2-1.13-4.12-11.86,1-22.64,10-28.7v-3.34a28.45,28.45,0,0,0-5.56,4.17A27.36,27.36,0,0,0,236.93,227Z"/><path class="cls-3" d="M243.61,248.49a9.62,9.62,0,0,0-.13,1.51h2.33a8.91,8.91,0,0,1,2.42-5.37q.87-.45,1.77-.81v-3C246.55,241.65,244.18,245.05,243.61,248.49Z"/><path class="cls-3" d="M236.84,244.42a15.26,15.26,0,0,0-1.79,5.58h2.69a23.8,23.8,0,0,1,.91-4.82A1,1,0,0,0,236.84,244.42Z"/><path class="cls-3" d="M8.19,184.32a1.07,1.07,0,0,0,1.36-.9c1-5.8,5.92-8.58,10-12.12a26.69,26.69,0,0,0,7.19-9.42c2.77-6.31,2.41-13.67-2.11-19.09A13.8,13.8,0,0,0,8.06,138.9,14.27,14.27,0,0,0,0,150v7.55a.76.76,0,0,0,1.2-.77c0-.12-.05-.24-.08-.36a.87.87,0,0,0,.81-.92c-.64-7.49,3.86-15.69,12.32-15.45,7.73.21,12.4,8.39,11.56,15.41-.81,6.7-5.15,11.55-10.2,15.61-3.7,3-7.11,5.8-8.29,10.37A20.64,20.64,0,0,0,0,177.15V180a22,22,0,0,1,6.59,4.21A1.15,1.15,0,0,0,8.19,184.32Z"/><path class="cls-3" d="M236.17,144.07c-7.86-.86-13.4,4.29-14.52,12a17,17,0,0,0,9.41,17.75c6,3.08,12.9,3.65,18.94,6.23v-2.89c-7.85-2.86-17.21-2.94-22.72-9.65-4.57-5.55-4.44-16.83,3-20.15s17.22,2.77,19.51,9.84a.86.86,0,0,0,.25.37V150a17.47,17.47,0,0,0-.21,2.62C247.22,147.71,241.91,144.69,236.17,144.07Z"/></pattern></defs><g id="Layer_2" data-name="Layer 2"><g id="Patterns"><rect class="cls-4" width="800" height="800"/></g></g></svg>