<svg xmlns="http://www.w3.org/2000/svg" viewBox="0 0 155.75 155.76"><defs><style>.cls-1{fill:#651f0d;}.cls-2{fill:#fff;}</style></defs><g id="Layer_2" data-name="Layer 2"><g id="Layer_1-2" data-name="Layer 1"><path class="cls-1" d="M0,79.59V76a24.9,24.9,0,0,0,.17-3.56,8.49,8.49,0,0,0,.18-2.13Q.7,67.64,1.06,65a27.93,27.93,0,0,1,1.06-6c.4-1.45.72-2.92,1.21-4.34.4-1.1.74-2.22,1.12-3.33l.18-.5c.43-1.1.91-2.17,1.27-3.3.65-1.22,1.11-2.52,1.77-3.74.15-.26.27-.52.4-.79.49-.89.87-1.83,1.4-2.7.63-1.13,1.26-2.26,1.91-3.38a3.53,3.53,0,0,0,.45-.57c.64-1,1.24-2,1.95-3,.52-.73,1-1.48,1.58-2.18.37-.48.73-1,1.1-1.46a84.14,84.14,0,0,1,13.2-13.21c.5-.36,1-.73,1.47-1.1a26.31,26.31,0,0,1,2.18-1.58c.95-.71,2-1.32,3-2l.82-.55c1-.6,2.07-1.23,3.14-1.8.87-.52,1.8-.93,2.69-1.4a8.36,8.36,0,0,0,.79-.4C45,7,46.3,6.46,47.6,5.89c1.06-.4,2.1-.85,3.16-1.26l.49-.18c1.07-.35,2.14-.7,3.19-1.08,1.48-.49,3-.85,4.48-1.25a30.88,30.88,0,0,1,6-1.06L70.32.35A7.94,7.94,0,0,0,72.44.17,26.59,26.59,0,0,0,76,0h3.57a23.65,23.65,0,0,0,3.57.16,7.9,7.9,0,0,0,2.12.19l5.37.7a.1.1,0,0,0,.14,0,28.55,28.55,0,0,1,5.88,1.05c1.5.41,3,.74,4.48,1.25,1,.4,2.13.71,3.19,1.08l.5.18L108,5.89c1.32.55,2.63,1.11,3.89,1.78l.79.4c.88.49,1.83.86,2.69,1.39,1.11.67,2.26,1.26,3.35,1.95.2.15.4.28.61.41,1,.6,2,1.27,3,2,.73.52,1.48,1,2.18,1.58.49.38,1,.73,1.47,1.12a77.59,77.59,0,0,1,13.18,13.19c.32.53.77.95,1.12,1.46.55.71,1.07,1.44,1.58,2.18.71.95,1.32,2,2,3,.13.2.26.41.4.61.68,1.1,1.34,2.22,2,3.35.52.87.93,1.8,1.4,2.69a8.36,8.36,0,0,0,.4.79c.65,1.27,1.21,2.58,1.78,3.89.4,1,.85,2.1,1.26,3.15.06.17.11.33.18.5.36,1.11.78,2.2,1.12,3.32.48,1.43.82,2.9,1.21,4.35a26.75,26.75,0,0,1,1,5.39c0,.25.18.44.18.68a12.69,12.69,0,0,1,.55,4.46,1.49,1.49,0,0,0,.07.86,8,8,0,0,0,.18,2.13,6.73,6.73,0,0,1,.17,3.56v3.58a6.63,6.63,0,0,1-.17,3.56,7.93,7.93,0,0,0-.18,2.11c-.19,1.2,0,2.41-.21,3.61a9,9,0,0,1-.49,1.78.09.09,0,0,0,0,.14,29.49,29.49,0,0,1-1.05,5.88c-.41,1.49-.75,3-1.25,4.48-.4,1-.71,2.13-1.08,3.19l-.18.49c-.43,1-.85,2.11-1.26,3.16-.55,1.31-1.11,2.63-1.78,3.89-.14.26-.27.52-.4.79-.49.88-.86,1.83-1.4,2.69-.64,1.12-1.3,2.23-1.94,3.34-.15.2-.28.41-.41.62-.6,1-1.27,2-2,3-.52.73-1,1.47-1.58,2.18l-1.09,1.45c-.81,1-1.64,2-2.49,3a5.67,5.67,0,0,0-.58.62,39.14,39.14,0,0,1-3.49,3.68,39,39,0,0,1-3.63,3.41c-1,.86-2,1.69-3,2.51-.47.38-1,.74-1.45,1.11-.71.55-1.44,1.07-2.18,1.58-1,.62-1.91,1.4-3,2l-.61.4c-1.13.64-2.21,1.35-3.33,2l-2.71,1.37a8.36,8.36,0,0,0-.79.4c-1.25.67-2.57,1.2-3.86,1.8-1.06.39-2.12.82-3.17,1.24l-.5.18c-1.07.35-2.14.7-3.19,1.08-1.48.49-3,.85-4.48,1.25a29.46,29.46,0,0,1-5.89,1.05l-.07,0-.07,0a9.82,9.82,0,0,1-4.16.63,3,3,0,0,0-1.22.07,8.29,8.29,0,0,0-2.11.18,6.67,6.67,0,0,1-3.57.17H76a6.67,6.67,0,0,1-3.57-.17,8.29,8.29,0,0,0-2.11-.18c-1-.23-2,.1-3.08-.11a17.24,17.24,0,0,1-2.24-.5c-1.46-.32-3-.33-4.42-.75-.31-.1-.63-.14-1-.23-1.68-.47-3.4-.81-5-1.39-1.1-.39-2.22-.74-3.33-1.12l-.5-.18c-1-.43-2.13-.76-3.16-1.25-1.31-.57-2.62-1.12-3.88-1.79l-.79-.4c-.88-.49-1.83-.86-2.69-1.39-1.13-.63-2.26-1.26-3.35-1.95-.2-.15-.41-.28-.61-.41-1-.65-2-1.24-3-2-.74-.52-1.48-1-2.18-1.58-.5-.35-.94-.79-1.46-1.12a77.59,77.59,0,0,1-13.19-13.18c-.39-.48-.75-1-1.12-1.47-.55-.71-1.07-1.44-1.58-2.18-.68-1-1.37-1.93-2-3-.13-.2-.26-.41-.4-.61-.68-1.1-1.34-2.22-1.95-3.35-.52-.87-.93-1.8-1.4-2.69a8.36,8.36,0,0,0-.4-.79C7,110.61,6.43,109.31,5.89,108c-.4-1-.85-2.09-1.26-3.15-.06-.16-.11-.33-.18-.5-.35-1.06-.69-2.13-1.07-3.19-.5-1.47-.86-3-1.26-4.47a30.14,30.14,0,0,1-1.07-6L.36,85.27a8.9,8.9,0,0,0-.19-2.12A28.19,28.19,0,0,0,0,79.59Z"/><path class="cls-2" d="M57,62.45h-1c-8.68,0-17.37,0-26,0-.77,0-1-.16-1-1,0-8.66,0-17.32,0-26v-.86c.42-.11.53.21.69.37,2.68,2.67,5.36,5.33,8,8,.55.56.82.46,1.3-.07A51.48,51.48,0,0,1,68.84,26.28a52.27,52.27,0,0,1,58,33.32,51.73,51.73,0,0,1,2.83,24.66c-.09.68-.31.87-1,.86q-5.94,0-11.87,0c-.74,0-.91-.19-.79-.91A38.44,38.44,0,0,0,94.87,43C82.39,37,70,37.62,58,44.49a36.44,36.44,0,0,0-9.57,8.06c-.48.54-.5.84,0,1.35,2.74,2.69,5.44,5.41,8.15,8.13A4.13,4.13,0,0,1,57,62.45Z"/><path class="cls-2" d="M34.81,107.38A58.54,58.54,0,0,1,29.32,97,52.23,52.23,0,0,1,26,71.35c.07-.61.27-.78.87-.78q6,0,12,0c.74,0,.87.18.77.92-2,14.93,2.72,27.29,14.42,36.75a36.88,36.88,0,0,0,27.42,8.07,38.09,38.09,0,0,0,25-12.48c.46-.5.43-.76,0-1.22-2.44-2.39-4.85-4.82-7.26-7.24-.18-.18-.45-.3-.48-.61s.32-.13.48-.13h26.5c.53,0,.88,0,.88.72,0,8.93,0,17.85,0,26.77a1.86,1.86,0,0,1,0,.34c-.3.13-.38-.14-.51-.27-2.94-2.93-5.9-5.87-8.82-8.83-.45-.46-.69-.52-1.18,0a50.34,50.34,0,0,1-27.86,15.57C72,132,57.44,128.29,44.6,118a48.67,48.67,0,0,1-7.16-7.19c-.39-.47-.81-.92-1.22-1.39-.17-.24-.37-.47-.55-.71l-.35-.54C35.17,107.87,34.89,107.69,34.81,107.38Z"/></g></g></svg>